<?xml version="1.0" encoding="UTF-8"?>
<svg id="Layer_1" xmlns="http://www.w3.org/2000/svg" version="1.1" viewBox="0 0 2193.65 787.3">
  <!-- Generator: Adobe Illustrator 30.1.0, SVG Export Plug-In . SVG Version: 2.1.1 Build 136)  -->
  <defs>
    <style>
      .st0 {
        fill: #666;
      }
    </style>
  </defs>
  <g>
    <path d="M621.41,576.37c-13.26-11.09-19.88-26.78-19.88-47.07s6.23-35.84,18.7-46.66c12.47-10.55,32.73-17.31,60.78-20.29,28.07-2.97,45.61-6.09,52.62-9.33,7.15-3.38,10.73-9.74,10.73-19.07s-2.9-16.3-8.71-20.9c-5.8-4.6-15.18-6.9-28.13-6.9s-22.63,2.57-29.04,7.71c-6.41,5.14-10.15,13.39-11.23,24.75h-59.21c1.63-23.54,11.33-41.39,29.1-53.56,17.77-12.17,42.18-18.26,73.23-18.26s54.31,5.21,69.8,15.62c15.49,10.42,23.23,25.09,23.23,44.03v115.24c0,21.91,2.5,37.13,7.51,45.65h-59.85c-2.17-6.49-3.59-13.32-4.26-20.49-17.04,17.58-41.12,26.38-72.23,26.38-22.18-.14-39.9-5.75-53.16-16.84ZM696.8,553.64c31.71,0,47.56-16.16,47.56-48.49v-22.93c-3.51,2.98-8.23,5.14-14.17,6.49-5.94,1.35-15.92,3.04-29.95,5.07-14.03,1.9-24.15,5.45-30.36,10.65-6.21,5.21-9.31,12.48-9.31,21.81,0,18.26,12.08,27.39,36.23,27.39Z"/>
    <path d="M933.04,589.76c-25.7,0-43.49-4.33-53.36-12.98-9.88-8.65-14.81-20.9-14.81-36.72v-128.02h-35.71v-39.56h35.71v-64.32h59.04v64.32h43.21v39.56h-43.21v109.4c.13,9.07,1.83,15.32,5.07,18.75,3.25,3.43,9.06,5.15,17.45,5.15s15.28-.54,20.69-1.62v44.11c-8.12,1.29-19.48,1.94-34.08,1.94Z"/>
    <path d="M1006.29,576.37c-13.26-11.09-19.88-26.78-19.88-47.07s6.23-35.84,18.7-46.66c12.47-10.55,32.73-17.31,60.78-20.29,28.07-2.97,45.61-6.09,52.62-9.33,7.15-3.38,10.73-9.74,10.73-19.07s-2.9-16.3-8.71-20.9c-5.8-4.6-15.18-6.9-28.13-6.9s-22.63,2.57-29.04,7.71c-6.41,5.14-10.15,13.39-11.23,24.75h-59.21c1.63-23.54,11.33-41.39,29.1-53.56,17.77-12.17,42.18-18.26,73.23-18.26s54.31,5.21,69.8,15.62c15.49,10.42,23.23,25.09,23.23,44.03v115.24c0,21.91,2.5,37.13,7.51,45.65h-59.85c-2.17-6.49-3.59-13.32-4.26-20.49-17.04,17.58-41.12,26.38-72.23,26.38-22.18-.14-39.9-5.75-53.16-16.84ZM1081.67,553.64c31.71,0,47.56-16.16,47.56-48.49v-22.93c-3.51,2.98-8.23,5.14-14.17,6.49-5.94,1.35-15.92,3.04-29.95,5.07-14.03,1.9-24.15,5.45-30.36,10.65-6.21,5.21-9.31,12.48-9.31,21.81,0,18.26,12.08,27.39,36.23,27.39Z"/>
    <path d="M1294.79,290.7v296.62h-59.04v-296.62h59.04Z"/>
    <path d="M1352,576.37c-13.26-11.09-19.88-26.78-19.88-47.07s6.23-35.84,18.7-46.66c12.47-10.55,32.73-17.31,60.78-20.29,28.07-2.97,45.61-6.09,52.62-9.33,7.15-3.38,10.73-9.74,10.73-19.07s-2.9-16.3-8.71-20.9c-5.8-4.6-15.18-6.9-28.13-6.9s-22.63,2.57-29.04,7.71c-6.41,5.14-10.15,13.39-11.23,24.75h-59.21c1.63-23.54,11.33-41.39,29.1-53.56,17.77-12.17,42.18-18.26,73.23-18.26s54.31,5.21,69.8,15.62c15.49,10.42,23.23,25.09,23.23,44.03v115.24c0,21.91,2.5,37.13,7.51,45.65h-59.85c-2.17-6.49-3.59-13.32-4.26-20.49-17.04,17.58-41.12,26.38-72.23,26.38-22.18-.14-39.9-5.75-53.16-16.84ZM1427.39,553.64c31.71,0,47.56-16.16,47.56-48.49v-22.93c-3.51,2.98-8.23,5.14-14.17,6.49-5.94,1.35-15.92,3.04-29.95,5.07-14.03,1.9-24.15,5.45-30.36,10.65-6.21,5.21-9.31,12.48-9.31,21.81,0,18.26,12.08,27.39,36.23,27.39Z"/>
    <path d="M1644.16,290.7v159.06l74.46-77.3h69.79l-81.15,78.92,90.28,135.93h-71.62l-58.84-95.96-22.93,21.91v74.05h-59.04v-296.62h59.04Z"/>
    <path d="M1911.57,593.21c-33-.14-59.48-10.62-79.43-31.45-19.95-20.83-30-47.68-30.13-80.55-.14-32.87,10.07-60.12,30.64-81.76,20.56-21.64,46.8-32.53,78.72-32.67,31.92-.13,57.48,10.75,76.69,32.67,18.93,21.91,28.4,49.84,28.4,83.79l-.41,10.96h-155.21c1.62,36.39,19.14,54.58,52.55,54.58,10.68,0,20.56-2.7,29.62-8.12,9.06-5.41,14.81-12.04,17.25-19.88h51.94c-8.12,24.48-20.43,42.68-36.93,54.58-16.5,11.9-37.74,17.85-63.71,17.85ZM1941.39,422.02c-7.44-7.34-18.19-11.01-32.26-11.01s-25.29,4.04-33.68,12.13c-8.39,8.08-13.26,19.33-14.61,33.73h95.96c-2.84-15.89-7.98-27.51-15.42-34.85Z"/>
  </g>
  <g>
    <path class="st0" d="M878.24,688.95c0-12.83,15.77-15.87,34.4-17.86v-.95c0-8.74-4.94-11.4-10.64-11.4s-9.98,3.04-10.26,9.22h-11.12c.76-10.36,9.41-17.58,21.76-17.58s21.85,5.61,21.57,21.95c0,2.47-.19,8.55-.19,13.21,0,6.46.47,13.21,1.52,17.48h-10.36c-.38-2.19-.67-3.42-.95-6.94-3.33,5.61-9.22,8.17-16.82,8.17-11.12,0-18.91-5.99-18.91-15.3ZM912.92,678.97c-16.06,1.52-22.71,3.9-22.71,9.69,0,4.47,3.71,7.13,9.41,7.13,8.36,0,13.3-4.18,13.3-12.92v-3.9Z"/>
    <path class="st0" d="M946.65,659.02c2.95-5.32,8.27-8.27,15.49-8.27,12.35,0,17.39,7.98,17.39,20.14v32.12h-11.31v-29.36c0-6.84-.95-13.68-9.69-13.68s-11.88,6.65-11.88,15.87v27.17h-11.31v-51.12h11.31v7.13Z"/>
    <path class="st0" d="M988.26,688.95c0-12.83,15.77-15.87,34.4-17.86v-.95c0-8.74-4.94-11.4-10.64-11.4s-9.98,3.04-10.26,9.22h-11.12c.76-10.36,9.41-17.58,21.76-17.58s21.85,5.61,21.57,21.95c0,2.47-.19,8.55-.19,13.21,0,6.46.47,13.21,1.52,17.48h-10.36c-.38-2.19-.67-3.42-.95-6.94-3.33,5.61-9.22,8.17-16.82,8.17-11.12,0-18.91-5.99-18.91-15.3ZM1022.95,678.97c-16.06,1.52-22.71,3.9-22.71,9.69,0,4.47,3.71,7.13,9.41,7.13,8.36,0,13.3-4.18,13.3-12.92v-3.9Z"/>
    <path class="st0" d="M1056.68,703.01h-11.31v-68.89h11.31v68.89Z"/>
    <path class="st0" d="M1067.41,719.64v-8.65h4.28c4.94,0,7.03-.38,9.31-7.03l.57-1.24-18.53-50.83h12.35l11.59,36.68,11.59-36.68h11.59l-17.96,51.02c-4.85,13.21-8.17,16.72-19.67,16.72h-5.13Z"/>
    <path class="st0" d="M1118.15,638.4h11.31v13.49h10.26v8.17h-10.26v27.84c0,5.23,1.24,6.46,6.08,6.46h4.09v8.65h-8.36c-10.93,0-13.11-2.95-13.11-13.4v-29.55h-7.6v-8.17h7.6v-13.49Z"/>
    <path class="st0" d="M1160.15,634.12v11.4h-11.31v-11.4h11.31ZM1160.15,651.89v51.12h-11.31v-51.12h11.31Z"/>
    <path class="st0" d="M1217.35,669.37h-11.02c-1.04-5.42-5.7-9.22-11.88-9.22-7.13,0-13.4,5.23-13.4,17.29s6.46,17.39,13.11,17.39c5.61,0,11.02-2.47,12.54-9.31h11.02c-2.28,11.97-12.83,18.72-23.75,18.72-14.82,0-24.61-11.5-24.61-26.7s9.79-26.79,25.08-26.79c11.21,0,20.9,7.32,22.9,18.62Z"/>
    <path class="st0" d="M1256.21,665.86c-1.24-4.66-5.51-6.46-11.21-6.46-4.94,0-9.5,2.19-9.5,5.61s2.38,5.23,6.84,6.08l7.22,1.43c10.36,2,18.24,5.23,18.24,15.2,0,10.64-10.07,16.53-21.66,16.53-12.54,0-20.9-7.22-22.14-16.82h11.02c1.04,5.32,4.75,8.27,11.5,8.27,5.99,0,10.26-2.47,10.26-6.65s-3.8-5.99-8.84-7.03l-7.7-1.52c-8.65-1.81-15.39-5.51-15.39-14.92s9.79-14.82,20.81-14.82c9.98,0,19.1,4.85,21.19,15.11h-10.64Z"/>
    <path class="st0" d="M1332.79,634.12h11.31v68.89h-11.31v-6.75c-3.04,5.04-8.36,7.98-15.2,7.98-12.16,0-22.23-10.36-22.23-26.79s10.07-26.7,22.23-26.7c6.84,0,12.16,2.95,15.2,7.98v-24.61ZM1320.06,659.97c-7.6,0-12.92,6.75-12.92,17.48s5.32,17.58,12.92,17.58,13.21-5.8,13.21-17.58-5.89-17.48-13.21-17.48Z"/>
    <path class="st0" d="M1353.79,688.95c0-12.83,15.77-15.87,34.4-17.86v-.95c0-8.74-4.94-11.4-10.64-11.4s-9.98,3.04-10.26,9.22h-11.12c.76-10.36,9.41-17.58,21.76-17.58s21.85,5.61,21.57,21.95c0,2.47-.19,8.55-.19,13.21,0,6.46.47,13.21,1.52,17.48h-10.36c-.38-2.19-.67-3.42-.95-6.94-3.33,5.61-9.22,8.17-16.82,8.17-11.12,0-18.91-5.99-18.91-15.3ZM1388.47,678.97c-16.06,1.52-22.71,3.9-22.71,9.69,0,4.47,3.71,7.13,9.41,7.13,8.36,0,13.3-4.18,13.3-12.92v-3.9Z"/>
    <path class="st0" d="M1412.51,638.4h11.31v13.49h10.26v8.17h-10.26v27.84c0,5.23,1.24,6.46,6.08,6.46h4.09v8.65h-8.36c-10.93,0-13.11-2.95-13.11-13.4v-29.55h-7.6v-8.17h7.6v-13.49Z"/>
    <path class="st0" d="M1440.16,688.95c0-12.83,15.77-15.87,34.4-17.86v-.95c0-8.74-4.94-11.4-10.64-11.4s-9.98,3.04-10.26,9.22h-11.12c.76-10.36,9.41-17.58,21.76-17.58s21.85,5.61,21.57,21.95c0,2.47-.19,8.55-.19,13.21,0,6.46.47,13.21,1.52,17.48h-10.36c-.38-2.19-.67-3.42-.95-6.94-3.33,5.61-9.22,8.17-16.82,8.17-11.12,0-18.91-5.99-18.91-15.3ZM1474.84,678.97c-16.06,1.52-22.71,3.9-22.71,9.69,0,4.47,3.71,7.13,9.41,7.13,8.36,0,13.3-4.18,13.3-12.92v-3.9Z"/>
    <path class="st0" d="M1520.73,638.4h11.31v13.49h10.26v8.17h-10.26v27.84c0,5.23,1.24,6.46,6.08,6.46h4.09v8.65h-8.36c-10.93,0-13.11-2.95-13.11-13.4v-29.55h-7.6v-8.17h7.6v-13.49Z"/>
    <path class="st0" d="M1559.5,680.68c.76,9.5,7.41,14.16,13.87,14.16,5.99,0,10.55-2.28,12.54-7.13h11.12c-2.28,8.17-10.07,16.53-23.18,16.53-16.44,0-25.84-12.45-25.84-27.17s10.64-26.32,25.08-26.32c15.68,0,25.56,12.83,24.51,29.93h-38.1ZM1559.5,672.41h26.6c-.29-7.98-6.37-12.83-13.02-12.83-5.32,0-12.54,3.23-13.59,12.83Z"/>
    <path class="st0" d="M1651.95,669.37h-11.02c-1.04-5.42-5.7-9.22-11.88-9.22-7.13,0-13.4,5.23-13.4,17.29s6.46,17.39,13.11,17.39c5.61,0,11.02-2.47,12.54-9.31h11.02c-2.28,11.97-12.83,18.72-23.75,18.72-14.82,0-24.61-11.5-24.61-26.7s9.79-26.79,25.08-26.79c11.21,0,20.9,7.32,22.9,18.62Z"/>
    <path class="st0" d="M1672.37,659.02c2.95-5.32,8.27-8.27,15.49-8.27,12.35,0,17.39,7.98,17.39,20.14v32.12h-11.31v-29.36c0-6.84-.95-13.68-9.69-13.68s-11.88,6.65-11.88,15.87v27.17h-11.31v-68.89h11.31v24.89Z"/>
    <path class="st0" d="M1728.34,659.02c2.95-5.32,8.27-8.27,15.49-8.27,12.35,0,17.39,7.98,17.39,20.14v32.12h-11.31v-29.36c0-6.84-.95-13.68-9.69-13.68s-11.88,6.65-11.88,15.87v27.17h-11.31v-51.12h11.31v7.13Z"/>
    <path class="st0" d="M1819.93,677.54c0,18.53-12.73,26.7-25.18,26.7s-25.18-8.17-25.18-26.7,12.73-26.79,25.18-26.79,25.18,8.36,25.18,26.79ZM1794.75,695.03c7.22,0,13.49-5.61,13.49-17.48s-6.27-17.58-13.49-17.58-13.49,5.8-13.49,17.58,6.27,17.48,13.49,17.48Z"/>
    <path class="st0" d="M1840.55,703.01h-11.31v-68.89h11.31v68.89Z"/>
    <path class="st0" d="M1900.22,677.54c0,18.53-12.73,26.7-25.18,26.7s-25.18-8.17-25.18-26.7,12.73-26.79,25.18-26.79,25.18,8.36,25.18,26.79ZM1875.04,695.03c7.22,0,13.49-5.61,13.49-17.48s-6.27-17.58-13.49-17.58-13.49,5.8-13.49,17.58,6.27,17.48,13.49,17.48Z"/>
    <path class="st0" d="M1944.02,651.89h11.31v45.99c0,8.27-2.09,14.25-6.18,18.05s-10.17,5.51-18.15,5.51c-11.21,0-20.05-4.47-21.85-15.68h11.21c1.04,4.85,4.09,6.75,10.93,6.75,5.04,0,8.27-1.43,10.17-3.71,1.9-2.19,2.57-5.32,2.57-8.65v-5.99c-3.04,5.04-8.36,7.98-15.2,7.98-12.16,0-22.23-9.79-22.23-25.75s10.07-25.65,22.23-25.65c6.84,0,12.16,2.95,15.2,7.98v-6.84ZM1931.29,659.78c-7.6,0-12.92,6.37-12.92,16.63s5.32,16.82,12.92,16.82,13.21-5.32,13.21-16.82-5.89-16.63-13.21-16.63Z"/>
    <path class="st0" d="M1965.97,719.64v-8.65h4.28c4.94,0,7.03-.38,9.31-7.03l.57-1.24-18.53-50.83h12.35l11.59,36.68,11.59-36.68h11.59l-17.96,51.02c-4.85,13.21-8.17,16.72-19.67,16.72h-5.13Z"/>
  </g>
  <g>
    <path d="M511.36,242.89c-32.87-34.32-72.19-53.76-127.8-54.9h-7.02s0,77.16,0,77.16c64.59,5.38,96.9,47.07,96.9,125.04,0,42.59-9.2,74.02-27.61,94.24-18.38,19.85-41.4,29.77-69.02,29.77h-79.65s-3.47-196.34-3.47-196.34h-87.16s3.21,248.27,3.21,248.27c.15,11.74,9.71,21.17,21.45,21.17h152.37c54.17,0,97.21-17.9,129.17-53.61,31.95-35.75,47.92-84.59,47.92-146.48,0-61.94-16.42-110.02-49.29-144.32Z"/>
    <g>
      <rect x="256.71" y="148.69" width="87.14" height="78.59" rx="8.51" ry="8.51"/>
      <rect x="188.74" y="84.29" width="59.92" height="54.03" rx="5.85" ry="5.85"/>
      <rect x="125.09" y="242.91" width="48.77" height="43.98" rx="4.76" ry="4.76"/>
      <rect x="125.09" y="146.11" width="48.77" height="43.98" rx="4.76" ry="4.76"/>
      <rect x="188.74" y="197.81" width="27.65" height="24.93" rx="2.7" ry="2.7"/>
      <rect x="307.26" y="257.41" width="27.65" height="24.93" rx="2.7" ry="2.7"/>
      <rect x="218.72" y="254.07" width="38" height="34.27" rx="3.71" ry="3.71"/>
    </g>
  </g>
</svg>