<?xml version="1.0" encoding="UTF-8"?>
<svg id="Layer_1" xmlns="http://www.w3.org/2000/svg" version="1.1" viewBox="0 0 2000 1000">
  <!-- Generator: Adobe Illustrator 30.1.0, SVG Export Plug-In . SVG Version: 2.1.1 Build 136)  -->
  <defs>
    <style>
      .st0 {
        fill: #666;
      }
    </style>
  </defs>
  <g>
    <path class="st0" d="M858.52,683.43c0-18.02,22.16-22.29,48.32-25.09v-1.33c0-12.28-6.94-16.02-14.95-16.02s-14.01,4.27-14.41,12.95h-15.62c1.07-14.55,13.21-24.69,30.56-24.69s30.7,7.87,30.3,30.83c0,3.47-.27,12.01-.27,18.55,0,9.08.67,18.55,2.14,24.56h-14.55c-.53-3.07-.93-4.8-1.33-9.74-4.67,7.88-12.95,11.48-23.62,11.48-15.62,0-26.56-8.41-26.56-21.49ZM907.24,669.41c-22.56,2.14-31.9,5.47-31.9,13.61,0,6.27,5.21,10.01,13.21,10.01,11.75,0,18.69-5.87,18.69-18.15v-5.47Z"/>
    <path class="st0" d="M954.62,641.38c4.14-7.47,11.61-11.61,21.76-11.61,17.35,0,24.42,11.21,24.42,28.3v45.11h-15.88v-41.24c0-9.61-1.33-19.22-13.61-19.22s-16.68,9.34-16.68,22.29v38.17h-15.88v-71.81h15.88v10.01Z"/>
    <path class="st0" d="M1013.08,683.43c0-18.02,22.16-22.29,48.32-25.09v-1.33c0-12.28-6.94-16.02-14.95-16.02s-14.01,4.27-14.41,12.95h-15.62c1.07-14.55,13.21-24.69,30.56-24.69s30.7,7.87,30.3,30.83c0,3.47-.27,12.01-.27,18.55,0,9.08.67,18.55,2.14,24.56h-14.55c-.53-3.07-.93-4.8-1.33-9.74-4.67,7.88-12.95,11.48-23.62,11.48-15.62,0-26.56-8.41-26.56-21.49ZM1061.79,669.41c-22.56,2.14-31.9,5.47-31.9,13.61,0,6.27,5.21,10.01,13.21,10.01,11.75,0,18.69-5.87,18.69-18.15v-5.47Z"/>
    <path class="st0" d="M1109.17,703.18h-15.88v-96.76h15.88v96.76Z"/>
    <path class="st0" d="M1124.25,726.54v-12.15h6.01c6.94,0,9.88-.53,13.08-9.88l.8-1.74-26.03-71.41h17.35l16.28,51.52,16.28-51.52h16.28l-25.23,71.67c-6.81,18.55-11.48,23.49-27.63,23.49h-7.21Z"/>
    <path class="st0" d="M1195.53,612.42h15.88v18.95h14.41v11.48h-14.41v39.11c0,7.34,1.73,9.08,8.54,9.08h5.74v12.15h-11.75c-15.35,0-18.42-4.14-18.42-18.82v-41.51h-10.68v-11.48h10.68v-18.95Z"/>
    <path class="st0" d="M1254.52,606.42v16.02h-15.88v-16.02h15.88ZM1254.52,631.37v71.81h-15.88v-71.81h15.88Z"/>
    <path class="st0" d="M1334.87,655.93h-15.48c-1.47-7.61-8.01-12.95-16.68-12.95-10.01,0-18.82,7.34-18.82,24.29s9.08,24.42,18.42,24.42c7.87,0,15.48-3.47,17.62-13.08h15.48c-3.2,16.82-18.02,26.29-33.37,26.29-20.82,0-34.57-16.15-34.57-37.5s13.75-37.64,35.24-37.64c15.75,0,29.36,10.28,32.17,26.16Z"/>
    <path class="st0" d="M1389.45,650.99c-1.74-6.54-7.74-9.08-15.75-9.08-6.94,0-13.35,3.07-13.35,7.87s3.34,7.34,9.61,8.54l10.14,2c14.55,2.8,25.63,7.34,25.63,21.36,0,14.95-14.15,23.22-30.43,23.22-17.62,0-29.36-10.14-31.1-23.62h15.48c1.47,7.47,6.67,11.61,16.15,11.61,8.41,0,14.41-3.47,14.41-9.34s-5.34-8.41-12.41-9.88l-10.81-2.14c-12.15-2.54-21.62-7.74-21.62-20.96s13.75-20.82,29.23-20.82c14.01,0,26.83,6.81,29.76,21.22h-14.95Z"/>
  </g>
  <g>
    <path class="st0" d="M910.44,741.58h15.88v96.76h-15.88v-9.48c-4.27,7.07-11.75,11.21-21.35,11.21-17.08,0-31.23-14.55-31.23-37.64s14.15-37.5,31.23-37.5c9.61,0,17.08,4.14,21.35,11.21v-34.57ZM892.56,777.88c-10.68,0-18.15,9.48-18.15,24.56s7.47,24.69,18.15,24.69,18.55-8.14,18.55-24.69-8.27-24.56-18.55-24.56Z"/>
    <path class="st0" d="M939.94,818.59c0-18.02,22.16-22.29,48.32-25.09v-1.33c0-12.28-6.94-16.02-14.95-16.02s-14.01,4.27-14.41,12.95h-15.62c1.07-14.55,13.21-24.69,30.56-24.69s30.7,7.87,30.3,30.83c0,3.47-.27,12.01-.27,18.55,0,9.08.67,18.55,2.14,24.56h-14.55c-.53-3.07-.93-4.8-1.33-9.74-4.67,7.88-12.95,11.48-23.62,11.48-15.62,0-26.56-8.41-26.56-21.49ZM988.65,804.57c-22.56,2.14-31.9,5.47-31.9,13.61,0,6.27,5.21,10.01,13.21,10.01,11.75,0,18.69-5.87,18.69-18.15v-5.47Z"/>
    <path class="st0" d="M1022.42,747.58h15.88v18.95h14.41v11.48h-14.41v39.11c0,7.34,1.73,9.08,8.54,9.08h5.74v12.15h-11.75c-15.35,0-18.42-4.14-18.42-18.82v-41.51h-10.68v-11.48h10.68v-18.95Z"/>
    <path class="st0" d="M1076.87,806.98c1.07,13.35,10.41,19.89,19.49,19.89,8.41,0,14.82-3.2,17.62-10.01h15.62c-3.2,11.48-14.15,23.22-32.57,23.22-23.09,0-36.3-17.48-36.3-38.17s14.95-36.97,35.24-36.97c22.02,0,35.9,18.02,34.44,42.04h-53.52ZM1076.87,795.36h37.37c-.4-11.21-8.94-18.02-18.29-18.02-7.47,0-17.62,4.54-19.09,18.02Z"/>
    <path class="st0" d="M1176.44,747.58h15.88v18.95h14.41v11.48h-14.41v39.11c0,7.34,1.73,9.08,8.54,9.08h5.74v12.15h-11.75c-15.35,0-18.42-4.14-18.42-18.82v-41.51h-10.68v-11.48h10.68v-18.95Z"/>
    <path class="st0" d="M1230.89,806.98c1.07,13.35,10.41,19.89,19.49,19.89,8.41,0,14.82-3.2,17.62-10.01h15.62c-3.2,11.48-14.15,23.22-32.57,23.22-23.09,0-36.3-17.48-36.3-38.17s14.95-36.97,35.24-36.97c22.02,0,35.9,18.02,34.44,42.04h-53.52ZM1230.89,795.36h37.37c-.4-11.21-8.94-18.02-18.29-18.02-7.47,0-17.62,4.54-19.09,18.02Z"/>
    <path class="st0" d="M1360.76,791.09h-15.48c-1.47-7.61-8.01-12.95-16.68-12.95-10.01,0-18.82,7.34-18.82,24.29s9.08,24.42,18.42,24.42c7.87,0,15.48-3.47,17.62-13.08h15.48c-3.2,16.82-18.02,26.29-33.37,26.29-20.82,0-34.57-16.15-34.57-37.5s13.75-37.64,35.24-37.64c15.75,0,29.36,10.28,32.17,26.16Z"/>
    <path class="st0" d="M1389.45,776.54c4.14-7.47,11.61-11.61,21.76-11.61,17.35,0,24.42,11.21,24.42,28.3v45.11h-15.88v-41.24c0-9.61-1.33-19.22-13.61-19.22s-16.68,9.34-16.68,22.29v38.17h-15.88v-96.76h15.88v34.97Z"/>
    <path class="st0" d="M1468.06,776.54c4.14-7.47,11.61-11.61,21.76-11.61,17.35,0,24.42,11.21,24.42,28.3v45.11h-15.88v-41.24c0-9.61-1.33-19.22-13.61-19.22s-16.68,9.34-16.68,22.29v38.17h-15.88v-71.81h15.88v10.01Z"/>
    <path class="st0" d="M1596.73,802.57c0,26.03-17.88,37.5-35.37,37.5s-35.37-11.48-35.37-37.5,17.88-37.64,35.37-37.64,35.37,11.75,35.37,37.64ZM1561.36,827.13c10.14,0,18.95-7.88,18.95-24.56s-8.81-24.69-18.95-24.69-18.95,8.14-18.95,24.69,8.81,24.56,18.95,24.56Z"/>
    <path class="st0" d="M1625.69,838.34h-15.88v-96.76h15.88v96.76Z"/>
    <path class="st0" d="M1709.51,802.57c0,26.03-17.88,37.5-35.37,37.5s-35.37-11.48-35.37-37.5,17.88-37.64,35.37-37.64,35.37,11.75,35.37,37.64ZM1674.14,827.13c10.14,0,18.95-7.88,18.95-24.56s-8.81-24.69-18.95-24.69-18.95,8.14-18.95,24.69,8.81,24.56,18.95,24.56Z"/>
    <path class="st0" d="M1771.03,766.53h15.88v64.6c0,11.61-2.94,20.02-8.68,25.36-5.74,5.34-14.28,7.74-25.49,7.74-15.75,0-28.16-6.27-30.7-22.02h15.75c1.47,6.81,5.74,9.48,15.35,9.48,7.07,0,11.61-2,14.28-5.21,2.67-3.07,3.6-7.47,3.6-12.15v-8.41c-4.27,7.07-11.75,11.21-21.35,11.21-17.08,0-31.23-13.75-31.23-36.17s14.15-36.04,31.23-36.04c9.61,0,17.08,4.14,21.35,11.21v-9.61ZM1753.15,777.61c-10.68,0-18.15,8.94-18.15,23.36s7.47,23.62,18.15,23.62,18.55-7.47,18.55-23.62-8.27-23.36-18.55-23.36Z"/>
    <path class="st0" d="M1801.86,861.7v-12.15h6.01c6.94,0,9.88-.53,13.08-9.88l.8-1.74-26.03-71.41h17.35l16.28,51.52,16.28-51.52h16.28l-25.23,71.67c-6.81,18.55-11.48,23.49-27.63,23.49h-7.21Z"/>
  </g>
  <g>
    <path d="M720.53,360.38c-46.17-48.21-101.41-75.51-179.52-77.11h-9.86s0,108.38,0,108.38c90.73,7.55,136.12,66.12,136.12,175.64,0,59.82-12.92,103.98-38.79,132.38-25.81,27.88-58.16,41.82-96.95,41.82h-111.88s-4.87-275.79-4.87-275.79h-122.44s4.51,348.71,4.51,348.71c.21,16.51,13.66,29.78,30.16,29.78h213.99c76.09,0,136.55-25.14,181.44-75.31,44.89-50.22,67.31-118.82,67.31-205.76,0-87-23.07-154.55-69.24-202.73Z"/>
    <g>
      <rect x="362.84" y="228.06" width="122.41" height="110.39" rx="11.96" ry="11.96"/>
      <rect x="267.35" y="137.6" width="84.16" height="75.9" rx="8.22" ry="8.22"/>
      <rect x="177.94" y="360.41" width="68.51" height="61.78" rx="6.69" ry="6.69"/>
      <rect x="177.94" y="224.43" width="68.51" height="61.78" rx="6.69" ry="6.69"/>
      <rect x="267.35" y="297.05" width="38.83" height="35.02" rx="3.79" ry="3.79"/>
      <rect x="433.84" y="380.76" width="38.83" height="35.02" rx="3.79" ry="3.79"/>
      <rect x="309.46" y="376.07" width="53.38" height="48.14" rx="5.21" ry="5.21"/>
    </g>
  </g>
</svg>