<?xml version="1.0" encoding="UTF-8"?>
<svg id="Layer_1" xmlns="http://www.w3.org/2000/svg" version="1.1" viewBox="0 0 1000 1000">
  <!-- Generator: Adobe Illustrator 30.1.0, SVG Export Plug-In . SVG Version: 2.1.1 Build 136)  -->
  <defs>
    <style>
      .st0 {
        fill: #f28d35;
      }

      .st1 {
        fill: #022873;
      }

      .st2 {
        fill: #16205a;
      }

      .st3 {
        fill: #e6e8e7;
      }

      .st4 {
        fill: #ef5829;
      }

      .st5 {
        fill: #34bf3a;
      }
    </style>
  </defs>
  <g>
    <path class="st2" d="M194.04,744.15c0-12.92,15.89-15.98,34.64-17.99v-.96c0-8.8-4.98-11.48-10.72-11.48s-10.05,3.06-10.34,9.28h-11.2c.77-10.43,9.47-17.71,21.92-17.71s22.01,5.65,21.72,22.11c0,2.49-.19,8.61-.19,13.3,0,6.51.48,13.3,1.53,17.61h-10.43c-.38-2.2-.67-3.45-.96-6.99-3.35,5.65-9.28,8.23-16.94,8.23-11.2,0-19.04-6.03-19.04-15.41ZM228.97,734.1c-16.17,1.53-22.87,3.92-22.87,9.76,0,4.5,3.73,7.18,9.47,7.18,8.42,0,13.4-4.21,13.4-13.02v-3.92Z"/>
    <path class="st2" d="M262.94,714c2.97-5.36,8.33-8.33,15.6-8.33,12.44,0,17.51,8.04,17.51,20.29v32.35h-11.39v-29.57c0-6.89-.96-13.78-9.76-13.78s-11.96,6.7-11.96,15.98v27.37h-11.39v-51.49h11.39v7.18Z"/>
    <path class="st2" d="M304.85,744.15c0-12.92,15.89-15.98,34.64-17.99v-.96c0-8.8-4.98-11.48-10.72-11.48s-10.05,3.06-10.34,9.28h-11.2c.77-10.43,9.47-17.71,21.92-17.71s22.01,5.65,21.72,22.11c0,2.49-.19,8.61-.19,13.3,0,6.51.48,13.3,1.53,17.61h-10.43c-.38-2.2-.67-3.45-.96-6.99-3.35,5.65-9.28,8.23-16.94,8.23-11.2,0-19.04-6.03-19.04-15.41ZM339.78,734.1c-16.17,1.53-22.87,3.92-22.87,9.76,0,4.5,3.73,7.18,9.47,7.18,8.42,0,13.4-4.21,13.4-13.02v-3.92Z"/>
    <path class="st2" d="M373.76,758.31h-11.39v-69.38h11.39v69.38Z"/>
    <path class="st2" d="M384.57,775.06v-8.71h4.31c4.98,0,7.08-.38,9.38-7.08l.57-1.24-18.66-51.2h12.44l11.68,36.94,11.68-36.94h11.68l-18.09,51.39c-4.88,13.3-8.23,16.84-19.81,16.84h-5.17Z"/>
    <path class="st2" d="M435.67,693.23h11.39v13.59h10.34v8.23h-10.34v28.04c0,5.26,1.24,6.51,6.12,6.51h4.12v8.71h-8.42c-11.01,0-13.21-2.97-13.21-13.49v-29.76h-7.66v-8.23h7.66v-13.59Z"/>
    <path class="st2" d="M477.97,688.93v11.48h-11.39v-11.48h11.39ZM477.97,706.82v51.49h-11.39v-51.49h11.39Z"/>
    <path class="st2" d="M535.58,724.43h-11.1c-1.05-5.46-5.74-9.28-11.96-9.28-7.18,0-13.49,5.26-13.49,17.42s6.51,17.51,13.21,17.51c5.65,0,11.1-2.49,12.63-9.38h11.1c-2.3,12.06-12.92,18.85-23.93,18.85-14.93,0-24.79-11.58-24.79-26.89s9.86-26.99,25.27-26.99c11.29,0,21.05,7.37,23.06,18.76Z"/>
    <path class="st2" d="M574.72,720.89c-1.24-4.69-5.55-6.51-11.29-6.51-4.98,0-9.57,2.2-9.57,5.65s2.39,5.26,6.89,6.12l7.27,1.44c10.43,2.01,18.38,5.26,18.38,15.31,0,10.72-10.14,16.65-21.82,16.65-12.63,0-21.05-7.27-22.3-16.94h11.1c1.05,5.36,4.79,8.33,11.58,8.33,6.03,0,10.34-2.49,10.34-6.7s-3.83-6.03-8.9-7.08l-7.75-1.53c-8.71-1.82-15.5-5.55-15.5-15.03s9.86-14.93,20.96-14.93c10.05,0,19.24,4.88,21.34,15.22h-10.72Z"/>
  </g>
  <g>
    <path class="st2" d="M231.27,785.85h11.39v69.38h-11.39v-6.79c-3.06,5.07-8.42,8.04-15.31,8.04-12.25,0-22.39-10.43-22.39-26.99s10.14-26.89,22.39-26.89c6.89,0,12.25,2.97,15.31,8.04v-24.79ZM218.44,811.88c-7.66,0-13.02,6.79-13.02,17.61s5.36,17.71,13.02,17.71,13.3-5.84,13.3-17.71-5.93-17.61-13.3-17.61Z"/>
    <path class="st2" d="M252.41,841.07c0-12.92,15.89-15.98,34.64-17.99v-.96c0-8.8-4.98-11.48-10.72-11.48s-10.05,3.06-10.34,9.28h-11.2c.77-10.43,9.47-17.71,21.92-17.71s22.01,5.65,21.72,22.11c0,2.49-.19,8.61-.19,13.3,0,6.51.48,13.3,1.53,17.61h-10.43c-.38-2.2-.67-3.45-.96-6.99-3.35,5.65-9.28,8.23-16.94,8.23-11.2,0-19.04-6.03-19.04-15.41ZM287.34,831.02c-16.17,1.53-22.87,3.92-22.87,9.76,0,4.5,3.73,7.18,9.47,7.18,8.42,0,13.4-4.21,13.4-13.02v-3.92Z"/>
    <path class="st2" d="M311.55,790.16h11.39v13.59h10.34v8.23h-10.34v28.04c0,5.26,1.24,6.51,6.12,6.51h4.12v8.71h-8.42c-11.01,0-13.21-2.97-13.21-13.49v-29.76h-7.66v-8.23h7.66v-13.59Z"/>
    <path class="st2" d="M350.6,832.75c.77,9.57,7.46,14.26,13.97,14.26,6.03,0,10.62-2.3,12.63-7.18h11.2c-2.3,8.23-10.14,16.65-23.35,16.65-16.56,0-26.03-12.54-26.03-27.37s10.72-26.51,25.27-26.51c15.79,0,25.74,12.92,24.69,30.15h-38.38ZM350.6,824.42h26.8c-.29-8.04-6.41-12.92-13.11-12.92-5.36,0-12.63,3.25-13.69,12.92Z"/>
    <path class="st2" d="M421.99,790.16h11.39v13.59h10.34v8.23h-10.34v28.04c0,5.26,1.24,6.51,6.12,6.51h4.12v8.71h-8.42c-11.01,0-13.21-2.97-13.21-13.49v-29.76h-7.66v-8.23h7.66v-13.59Z"/>
    <path class="st2" d="M461.03,832.75c.77,9.57,7.46,14.26,13.97,14.26,6.03,0,10.62-2.3,12.63-7.18h11.2c-2.3,8.23-10.14,16.65-23.35,16.65-16.56,0-26.03-12.54-26.03-27.37s10.72-26.51,25.27-26.51c15.79,0,25.74,12.92,24.69,30.15h-38.38ZM461.03,824.42h26.8c-.29-8.04-6.41-12.92-13.11-12.92-5.36,0-12.63,3.25-13.69,12.92Z"/>
    <path class="st2" d="M554.14,821.36h-11.1c-1.05-5.46-5.74-9.28-11.96-9.28-7.18,0-13.49,5.26-13.49,17.42s6.51,17.51,13.21,17.51c5.65,0,11.1-2.49,12.63-9.38h11.1c-2.3,12.06-12.92,18.85-23.93,18.85-14.93,0-24.79-11.58-24.79-26.89s9.86-26.99,25.27-26.99c11.29,0,21.05,7.37,23.06,18.76Z"/>
    <path class="st2" d="M574.72,810.93c2.97-5.36,8.33-8.33,15.6-8.33,12.44,0,17.51,8.04,17.51,20.29v32.35h-11.39v-29.57c0-6.89-.96-13.78-9.76-13.78s-11.96,6.7-11.96,15.98v27.37h-11.39v-69.38h11.39v25.07Z"/>
    <path class="st2" d="M631.08,810.93c2.97-5.36,8.33-8.33,15.6-8.33,12.44,0,17.51,8.04,17.51,20.29v32.35h-11.39v-29.57c0-6.89-.96-13.78-9.76-13.78s-11.96,6.7-11.96,15.98v27.37h-11.39v-51.49h11.39v7.18Z"/>
    <path class="st2" d="M723.34,829.59c0,18.66-12.82,26.89-25.36,26.89s-25.36-8.23-25.36-26.89,12.82-26.99,25.36-26.99,25.36,8.42,25.36,26.99ZM697.97,847.2c7.27,0,13.59-5.65,13.59-17.61s-6.32-17.71-13.59-17.71-13.59,5.84-13.59,17.71,6.32,17.61,13.59,17.61Z"/>
    <path class="st2" d="M744.1,855.24h-11.39v-69.38h11.39v69.38Z"/>
    <path class="st2" d="M804.2,829.59c0,18.66-12.82,26.89-25.36,26.89s-25.36-8.23-25.36-26.89,12.82-26.99,25.36-26.99,25.36,8.42,25.36,26.99ZM778.84,847.2c7.27,0,13.59-5.65,13.59-17.61s-6.32-17.71-13.59-17.71-13.59,5.84-13.59,17.71,6.32,17.61,13.59,17.61Z"/>
    <path class="st2" d="M848.31,803.75h11.39v46.32c0,8.33-2.11,14.36-6.22,18.18s-10.24,5.55-18.28,5.55c-11.29,0-20.19-4.5-22.01-15.79h11.29c1.05,4.88,4.12,6.79,11.01,6.79,5.07,0,8.33-1.44,10.24-3.73,1.91-2.2,2.58-5.36,2.58-8.71v-6.03c-3.06,5.07-8.42,8.04-15.31,8.04-12.25,0-22.39-9.86-22.39-25.94s10.14-25.84,22.39-25.84c6.89,0,12.25,2.97,15.31,8.04v-6.89ZM835.49,811.69c-7.66,0-13.02,6.41-13.02,16.75s5.36,16.94,13.02,16.94,13.3-5.36,13.3-16.94-5.93-16.75-13.3-16.75Z"/>
    <path class="st2" d="M870.42,871.98v-8.71h4.31c4.98,0,7.08-.38,9.38-7.08l.57-1.24-18.66-51.2h12.44l11.68,36.94,11.68-36.94h11.68l-18.09,51.39c-4.88,13.3-8.23,16.84-19.81,16.84h-5.17Z"/>
  </g>
  <g>
    <path class="st1" d="M489.36,291.46c-33.1-34.57-72.71-54.14-128.71-55.29h-7.07s0,77.71,0,77.71c65.06,5.42,97.6,47.41,97.6,125.93,0,42.89-9.26,74.55-27.81,94.92-18.51,19.99-41.7,29.99-69.51,29.99h-80.22s-3.49-197.74-3.49-197.74h-87.79s3.24,250.06,3.24,250.06c.15,11.82,9.78,21.32,21.59,21.32h153.47c54.56,0,97.91-18.03,130.09-53.99,32.18-36.01,48.26-85.2,48.26-147.53,0-62.38-16.54-110.81-49.65-145.36Z"/>
    <g>
      <rect class="st4" x="232.89" y="196.58" width="87.77" height="79.15" rx="8.57" ry="8.57"/>
      <rect class="st1" x="164.43" y="131.72" width="60.34" height="54.42" rx="5.9" ry="5.9"/>
      <rect class="st1" x="100.32" y="291.47" width="49.12" height="44.3" rx="4.8" ry="4.8"/>
      <rect class="st3" x="100.32" y="193.98" width="49.12" height="44.3" rx="4.8" ry="4.8"/>
      <rect class="st5" x="164.43" y="246.05" width="27.84" height="25.11" rx="2.72" ry="2.72"/>
      <rect class="st5" x="283.8" y="306.07" width="27.84" height="25.11" rx="2.72" ry="2.72"/>
      <rect class="st0" x="194.62" y="302.71" width="38.27" height="34.51" rx="3.74" ry="3.74"/>
    </g>
  </g>
</svg>