<?xml version="1.0" encoding="UTF-8"?>
<svg id="Layer_1" xmlns="http://www.w3.org/2000/svg" version="1.1" viewBox="0 0 2193.65 787.3">
  <!-- Generator: Adobe Illustrator 30.1.0, SVG Export Plug-In . SVG Version: 2.1.1 Build 136)  -->
  <defs>
    <style>
      .st0 {
        fill: #f28d35;
      }

      .st1 {
        fill: #022873;
      }

      .st2 {
        fill: #009ee2;
      }

      .st3 {
        fill: #ef5829;
      }

      .st4 {
        fill: #1598cc;
      }

      .st5 {
        fill: #34bf3a;
      }
    </style>
  </defs>
  <g>
    <path class="st1" d="M642.44,557.54c-13.23-11.06-19.84-26.72-19.84-46.96s6.22-35.76,18.66-46.55c12.44-10.53,32.65-17.27,60.64-20.24,28-2.97,45.5-6.07,52.5-9.31,7.14-3.37,10.7-9.72,10.7-19.03s-2.9-16.26-8.68-20.85c-5.79-4.59-15.14-6.88-28.07-6.88s-22.58,2.56-28.98,7.69c-6.4,5.13-10.13,13.36-11.21,24.69h-59.07c1.63-23.48,11.3-41.29,29.04-53.44,17.73-12.14,42.08-18.22,73.05-18.22s54.18,5.2,69.63,15.59c15.45,10.39,23.18,25.03,23.18,43.92v114.97c0,21.86,2.5,37.04,7.49,45.54h-59.71c-2.16-6.48-3.58-13.29-4.25-20.44-17,17.54-41.02,26.31-72.06,26.31-22.13-.14-39.81-5.74-53.03-16.8ZM717.65,534.87c31.63,0,47.45-16.12,47.45-48.38v-22.87c-3.5,2.97-8.21,5.13-14.13,6.48-5.92,1.35-15.89,3.04-29.88,5.06-14,1.89-24.1,5.43-30.29,10.63-6.19,5.2-9.29,12.45-9.29,21.76,0,18.22,12.05,27.33,36.14,27.33Z"/>
    <path class="st1" d="M953.34,570.9c-25.64,0-43.39-4.32-53.23-12.95-9.85-8.63-14.78-20.85-14.78-36.64v-127.72h-35.62v-39.47h35.62v-64.16h58.9v64.16h43.11v39.47h-43.11v109.14c.13,9.05,1.82,15.28,5.06,18.71,3.24,3.43,9.04,5.14,17.41,5.14s15.25-.54,20.65-1.62v44.01c-8.1,1.29-19.43,1.94-34.01,1.94Z"/>
    <path class="st1" d="M1026.41,557.54c-13.23-11.06-19.84-26.72-19.84-46.96s6.22-35.76,18.66-46.55c12.44-10.53,32.65-17.27,60.64-20.24,28-2.97,45.5-6.07,52.5-9.31,7.14-3.37,10.7-9.72,10.7-19.03s-2.9-16.26-8.68-20.85c-5.79-4.59-15.14-6.88-28.07-6.88s-22.58,2.56-28.98,7.69c-6.4,5.13-10.13,13.36-11.21,24.69h-59.07c1.63-23.48,11.3-41.29,29.04-53.44,17.73-12.14,42.08-18.22,73.05-18.22s54.18,5.2,69.63,15.59c15.45,10.39,23.18,25.03,23.18,43.92v114.97c0,21.86,2.5,37.04,7.49,45.54h-59.71c-2.16-6.48-3.58-13.29-4.25-20.44-17,17.54-41.02,26.31-72.06,26.31-22.13-.14-39.81-5.74-53.03-16.8ZM1101.62,534.87c31.63,0,47.45-16.12,47.45-48.38v-22.87c-3.5,2.97-8.21,5.13-14.13,6.48-5.92,1.35-15.89,3.04-29.88,5.06-14,1.89-24.1,5.43-30.29,10.63-6.19,5.2-9.29,12.45-9.29,21.76,0,18.22,12.05,27.33,36.14,27.33Z"/>
    <path class="st1" d="M1314.24,272.55v295.92h-58.9v-295.92h58.9Z"/>
    <path class="st1" d="M1371.32,557.54c-13.23-11.06-19.84-26.72-19.84-46.96s6.22-35.76,18.66-46.55c12.44-10.53,32.65-17.27,60.64-20.24,28-2.97,45.5-6.07,52.5-9.31,7.14-3.37,10.7-9.72,10.7-19.03s-2.9-16.26-8.68-20.85c-5.79-4.59-15.14-6.88-28.07-6.88s-22.58,2.56-28.98,7.69c-6.4,5.13-10.13,13.36-11.21,24.69h-59.07c1.63-23.48,11.3-41.29,29.04-53.44,17.73-12.14,42.08-18.22,73.05-18.22s54.18,5.2,69.63,15.59c15.45,10.39,23.18,25.03,23.18,43.92v114.97c0,21.86,2.5,37.04,7.49,45.54h-59.71c-2.16-6.48-3.58-13.29-4.25-20.44-17,17.54-41.02,26.31-72.06,26.31-22.13-.14-39.81-5.74-53.03-16.8ZM1446.53,534.87c31.63,0,47.45-16.12,47.45-48.38v-22.87c-3.5,2.97-8.21,5.13-14.13,6.48-5.92,1.35-15.89,3.04-29.88,5.06-14,1.89-24.1,5.43-30.29,10.63-6.19,5.2-9.29,12.45-9.29,21.76,0,18.22,12.05,27.33,36.14,27.33Z"/>
    <path class="st1" d="M1662.79,272.55v158.69l74.28-77.12h69.63l-80.96,78.74,90.07,135.62h-71.45l-58.7-95.74-22.87,21.86v73.88h-58.9v-295.92h58.9Z"/>
    <path class="st1" d="M1929.57,574.34c-32.93-.14-59.34-10.59-79.24-31.37-19.91-20.78-29.93-47.57-30.06-80.36-.14-32.79,10.05-59.98,30.56-81.57,20.51-21.59,46.69-32.45,78.54-32.59,31.85-.13,57.35,10.73,76.51,32.59,18.89,21.86,28.34,49.73,28.34,83.6l-.4,10.93h-154.84c1.62,36.3,19.09,54.45,52.42,54.45,10.66,0,20.51-2.7,29.55-8.1,9.04-5.4,14.78-12.01,17.21-19.84h51.82c-8.1,24.43-20.38,42.58-36.84,54.45-16.46,11.88-37.65,17.81-63.56,17.81ZM1959.33,403.56c-7.42-7.32-18.15-10.98-32.18-10.98s-25.23,4.03-33.6,12.1c-8.37,8.06-13.23,19.28-14.57,33.65h95.74c-2.83-15.86-7.96-27.45-15.38-34.76Z"/>
  </g>
  <g>
    <path class="st4" d="M898.68,669.86c0-12.8,15.73-15.83,34.31-17.82v-.95c0-8.72-4.93-11.37-10.62-11.37s-9.95,3.03-10.24,9.19h-11.09c.76-10.33,9.38-17.54,21.71-17.54s21.8,5.59,21.52,21.9c0,2.46-.19,8.53-.19,13.18,0,6.45.47,13.18,1.52,17.44h-10.33c-.38-2.18-.66-3.41-.95-6.92-3.32,5.59-9.19,8.15-16.78,8.15-11.09,0-18.86-5.97-18.86-15.26ZM933.28,659.91c-16.02,1.52-22.65,3.89-22.65,9.67,0,4.46,3.7,7.11,9.38,7.11,8.34,0,13.27-4.17,13.27-12.89v-3.89Z"/>
    <path class="st4" d="M966.93,640c2.94-5.31,8.25-8.25,15.45-8.25,12.32,0,17.35,7.96,17.35,20.1v32.04h-11.28v-29.29c0-6.82-.95-13.65-9.67-13.65s-11.85,6.64-11.85,15.83v27.11h-11.28v-51h11.28v7.11Z"/>
    <path class="st4" d="M1008.45,669.86c0-12.8,15.73-15.83,34.31-17.82v-.95c0-8.72-4.93-11.37-10.62-11.37s-9.95,3.03-10.24,9.19h-11.09c.76-10.33,9.38-17.54,21.71-17.54s21.8,5.59,21.52,21.9c0,2.46-.19,8.53-.19,13.18,0,6.45.47,13.18,1.52,17.44h-10.33c-.38-2.18-.66-3.41-.95-6.92-3.32,5.59-9.19,8.15-16.78,8.15-11.09,0-18.86-5.97-18.86-15.26ZM1043.04,659.91c-16.02,1.52-22.65,3.89-22.65,9.67,0,4.46,3.7,7.11,9.38,7.11,8.34,0,13.27-4.17,13.27-12.89v-3.89Z"/>
    <path class="st4" d="M1076.7,683.89h-11.28v-68.72h11.28v68.72Z"/>
    <path class="st4" d="M1087.41,700.48v-8.63h4.27c4.93,0,7.01-.38,9.29-7.01l.57-1.23-18.48-50.71h12.32l11.56,36.59,11.56-36.59h11.56l-17.92,50.9c-4.83,13.18-8.15,16.68-19.62,16.68h-5.12Z"/>
    <path class="st4" d="M1138.03,619.44h11.28v13.46h10.24v8.15h-10.24v27.77c0,5.21,1.23,6.45,6.07,6.45h4.08v8.63h-8.34c-10.9,0-13.08-2.94-13.08-13.36v-29.48h-7.58v-8.15h7.58v-13.46Z"/>
    <path class="st4" d="M1179.93,615.17v11.37h-11.28v-11.37h11.28ZM1179.93,632.9v51h-11.28v-51h11.28Z"/>
    <path class="st4" d="M1236.99,650.34h-11c-1.04-5.4-5.69-9.19-11.85-9.19-7.11,0-13.37,5.21-13.37,17.25s6.45,17.35,13.08,17.35c5.59,0,11-2.46,12.51-9.29h11c-2.27,11.94-12.8,18.67-23.7,18.67-14.79,0-24.55-11.47-24.55-26.64s9.76-26.73,25.02-26.73c11.18,0,20.85,7.3,22.84,18.58Z"/>
    <path class="st4" d="M1275.76,646.83c-1.23-4.64-5.5-6.45-11.19-6.45-4.93,0-9.48,2.18-9.48,5.59s2.37,5.21,6.82,6.07l7.2,1.42c10.33,1.99,18.2,5.21,18.2,15.17,0,10.62-10.05,16.49-21.61,16.49-12.51,0-20.85-7.2-22.09-16.78h11c1.04,5.31,4.74,8.25,11.47,8.25,5.97,0,10.24-2.46,10.24-6.64s-3.79-5.97-8.82-7.01l-7.68-1.52c-8.63-1.8-15.36-5.5-15.36-14.88s9.76-14.79,20.76-14.79c9.95,0,19.05,4.83,21.14,15.07h-10.62Z"/>
    <path class="st4" d="M1352.16,615.17h11.28v68.72h-11.28v-6.73c-3.03,5.02-8.34,7.96-15.17,7.96-12.13,0-22.18-10.33-22.18-26.73s10.05-26.64,22.18-26.64c6.82,0,12.13,2.94,15.17,7.96v-24.55ZM1339.46,640.95c-7.58,0-12.89,6.73-12.89,17.44s5.31,17.54,12.89,17.54,13.18-5.78,13.18-17.54-5.88-17.44-13.18-17.44Z"/>
    <path class="st4" d="M1373.11,669.86c0-12.8,15.73-15.83,34.31-17.82v-.95c0-8.72-4.93-11.37-10.62-11.37s-9.95,3.03-10.24,9.19h-11.09c.76-10.33,9.38-17.54,21.71-17.54s21.8,5.59,21.52,21.9c0,2.46-.19,8.53-.19,13.18,0,6.45.47,13.18,1.52,17.44h-10.33c-.38-2.18-.66-3.41-.95-6.92-3.32,5.59-9.19,8.15-16.78,8.15-11.09,0-18.86-5.97-18.86-15.26ZM1407.71,659.91c-16.02,1.52-22.65,3.89-22.65,9.67,0,4.46,3.7,7.11,9.38,7.11,8.34,0,13.27-4.17,13.27-12.89v-3.89Z"/>
    <path class="st4" d="M1431.69,619.44h11.28v13.46h10.24v8.15h-10.24v27.77c0,5.21,1.23,6.45,6.07,6.45h4.08v8.63h-8.34c-10.9,0-13.08-2.94-13.08-13.36v-29.48h-7.58v-8.15h7.58v-13.46Z"/>
    <path class="st4" d="M1459.28,669.86c0-12.8,15.73-15.83,34.31-17.82v-.95c0-8.72-4.93-11.37-10.62-11.37s-9.95,3.03-10.24,9.19h-11.09c.76-10.33,9.38-17.54,21.71-17.54s21.8,5.59,21.52,21.9c0,2.46-.19,8.53-.19,13.18,0,6.45.47,13.18,1.52,17.44h-10.33c-.38-2.18-.66-3.41-.95-6.92-3.32,5.59-9.19,8.15-16.78,8.15-11.09,0-18.86-5.97-18.86-15.26ZM1493.88,659.91c-16.02,1.52-22.65,3.89-22.65,9.67,0,4.46,3.7,7.11,9.38,7.11,8.34,0,13.27-4.17,13.27-12.89v-3.89Z"/>
    <path class="st4" d="M1539.66,619.44h11.28v13.46h10.24v8.15h-10.24v27.77c0,5.21,1.23,6.45,6.07,6.45h4.08v8.63h-8.34c-10.9,0-13.08-2.94-13.08-13.36v-29.48h-7.58v-8.15h7.58v-13.46Z"/>
    <path class="st4" d="M1578.34,661.62c.76,9.48,7.39,14.12,13.84,14.12,5.97,0,10.52-2.27,12.51-7.11h11.09c-2.27,8.15-10.05,16.49-23.13,16.49-16.4,0-25.78-12.42-25.78-27.11s10.62-26.26,25.02-26.26c15.64,0,25.5,12.8,24.46,29.86h-38.01ZM1578.34,653.37h26.54c-.28-7.96-6.35-12.8-12.99-12.8-5.31,0-12.51,3.22-13.55,12.8Z"/>
    <path class="st4" d="M1670.57,650.34h-11c-1.04-5.4-5.69-9.19-11.85-9.19-7.11,0-13.37,5.21-13.37,17.25s6.45,17.35,13.08,17.35c5.59,0,11-2.46,12.51-9.29h11c-2.27,11.94-12.8,18.67-23.7,18.67-14.79,0-24.55-11.47-24.55-26.64s9.76-26.73,25.02-26.73c11.18,0,20.85,7.3,22.84,18.58Z"/>
    <path class="st4" d="M1690.95,640c2.94-5.31,8.25-8.25,15.45-8.25,12.32,0,17.35,7.96,17.35,20.1v32.04h-11.28v-29.29c0-6.82-.95-13.65-9.67-13.65s-11.85,6.64-11.85,15.83v27.11h-11.28v-68.72h11.28v24.83Z"/>
    <path class="st4" d="M1746.78,640c2.94-5.31,8.25-8.25,15.45-8.25,12.32,0,17.35,7.96,17.35,20.1v32.04h-11.28v-29.29c0-6.82-.95-13.65-9.67-13.65s-11.85,6.64-11.85,15.83v27.11h-11.28v-51h11.28v7.11Z"/>
    <path class="st4" d="M1838.16,658.49c0,18.48-12.7,26.64-25.12,26.64s-25.12-8.15-25.12-26.64,12.7-26.73,25.12-26.73,25.12,8.34,25.12,26.73ZM1813.04,675.93c7.2,0,13.46-5.59,13.46-17.44s-6.26-17.54-13.46-17.54-13.46,5.78-13.46,17.54,6.26,17.44,13.46,17.44Z"/>
    <path class="st4" d="M1858.73,683.89h-11.28v-68.72h11.28v68.72Z"/>
    <path class="st4" d="M1918.26,658.49c0,18.48-12.7,26.64-25.12,26.64s-25.12-8.15-25.12-26.64,12.7-26.73,25.12-26.73,25.12,8.34,25.12,26.73ZM1893.14,675.93c7.2,0,13.46-5.59,13.46-17.44s-6.26-17.54-13.46-17.54-13.46,5.78-13.46,17.54,6.26,17.44,13.46,17.44Z"/>
    <path class="st4" d="M1961.96,632.9h11.28v45.88c0,8.25-2.09,14.22-6.16,18.01-4.08,3.79-10.14,5.5-18.1,5.5-11.19,0-20-4.45-21.8-15.64h11.19c1.04,4.83,4.08,6.73,10.9,6.73,5.02,0,8.25-1.42,10.14-3.7,1.9-2.18,2.56-5.31,2.56-8.63v-5.97c-3.03,5.02-8.34,7.96-15.17,7.96-12.13,0-22.18-9.76-22.18-25.69s10.05-25.59,22.18-25.59c6.82,0,12.13,2.94,15.17,7.96v-6.82ZM1949.26,640.76c-7.58,0-12.89,6.35-12.89,16.59s5.31,16.78,12.89,16.78,13.18-5.31,13.18-16.78-5.88-16.59-13.18-16.59Z"/>
    <path class="st4" d="M1983.86,700.48v-8.63h4.27c4.93,0,7.01-.38,9.29-7.01l.57-1.23-18.48-50.71h12.32l11.56,36.59,11.56-36.59h11.56l-17.92,50.9c-4.83,13.18-8.15,16.68-19.62,16.68h-5.12Z"/>
  </g>
  <g>
    <path class="st1" d="M532.66,224.84c-32.79-34.24-72.02-53.63-127.5-54.77h-7s0,76.97,0,76.97c64.44,5.37,96.67,46.96,96.67,124.74,0,42.49-9.18,73.85-27.55,94.02-18.33,19.8-41.3,29.7-68.86,29.7h-79.46s-3.46-195.88-3.46-195.88h-86.96s3.21,247.69,3.21,247.69c.15,11.71,9.69,21.12,21.4,21.12h152.01c54.04,0,96.99-17.86,128.86-53.49,31.88-35.67,47.81-84.39,47.81-146.14,0-61.79-16.39-109.77-49.18-143.99Z"/>
    <g>
      <rect class="st3" x="278.61" y="130.86" width="86.94" height="78.4" rx="8.49" ry="8.49"/>
      <rect class="st2" x="210.79" y="66.61" width="59.77" height="53.91" rx="5.84" ry="5.84"/>
      <rect class="st2" x="147.29" y="224.86" width="48.66" height="43.88" rx="4.75" ry="4.75"/>
      <rect class="st1" x="147.29" y="128.28" width="48.66" height="43.88" rx="4.75" ry="4.75"/>
      <rect class="st5" x="210.79" y="179.86" width="27.58" height="24.87" rx="2.69" ry="2.69"/>
      <rect class="st5" x="329.04" y="239.32" width="27.58" height="24.87" rx="2.69" ry="2.69"/>
      <rect class="st0" x="240.7" y="235.99" width="37.91" height="34.19" rx="3.7" ry="3.7"/>
    </g>
  </g>
</svg>