<?xml version="1.0" encoding="UTF-8"?>
<svg id="Layer_1" xmlns="http://www.w3.org/2000/svg" version="1.1" viewBox="0 0 1000 1000">
  <!-- Generator: Adobe Illustrator 30.1.0, SVG Export Plug-In . SVG Version: 2.1.1 Build 136)  -->
  <defs>
    <style>
      .st0 {
        fill: #f28d35;
      }

      .st1 {
        fill: #022873;
      }

      .st2 {
        fill: #009ee2;
      }

      .st3 {
        fill: #16205a;
      }

      .st4 {
        fill: #ef5829;
      }

      .st5 {
        fill: #34bf3a;
      }
    </style>
  </defs>
  <g>
    <path class="st3" d="M193.06,771.74c0-12.92,15.88-15.98,34.64-17.99v-.96c0-8.8-4.98-11.48-10.72-11.48s-10.05,3.06-10.33,9.28h-11.2c.77-10.43,9.47-17.7,21.91-17.7s22.01,5.65,21.72,22.1c0,2.49-.19,8.61-.19,13.3,0,6.51.48,13.3,1.53,17.61h-10.43c-.38-2.2-.67-3.44-.96-6.99-3.35,5.65-9.28,8.23-16.94,8.23-11.2,0-19.04-6.03-19.04-15.41ZM227.99,761.69c-16.17,1.53-22.87,3.92-22.87,9.76,0,4.5,3.73,7.18,9.47,7.18,8.42,0,13.4-4.21,13.4-13.01v-3.92Z"/>
    <path class="st3" d="M261.96,741.59c2.97-5.36,8.32-8.32,15.6-8.32,12.44,0,17.51,8.04,17.51,20.29v32.34h-11.39v-29.57c0-6.89-.96-13.78-9.76-13.78s-11.96,6.7-11.96,15.98v27.37h-11.39v-51.48h11.39v7.18Z"/>
    <path class="st3" d="M303.87,771.74c0-12.92,15.88-15.98,34.64-17.99v-.96c0-8.8-4.98-11.48-10.72-11.48s-10.05,3.06-10.33,9.28h-11.2c.77-10.43,9.47-17.7,21.91-17.7s22.01,5.65,21.72,22.1c0,2.49-.19,8.61-.19,13.3,0,6.51.48,13.3,1.53,17.61h-10.43c-.38-2.2-.67-3.44-.96-6.99-3.35,5.65-9.28,8.23-16.94,8.23-11.2,0-19.04-6.03-19.04-15.41ZM338.8,761.69c-16.17,1.53-22.87,3.92-22.87,9.76,0,4.5,3.73,7.18,9.47,7.18,8.42,0,13.4-4.21,13.4-13.01v-3.92Z"/>
    <path class="st3" d="M372.77,785.9h-11.39v-69.37h11.39v69.37Z"/>
    <path class="st3" d="M383.59,802.64v-8.71h4.31c4.98,0,7.08-.38,9.38-7.08l.57-1.24-18.66-51.19h12.44l11.67,36.94,11.67-36.94h11.67l-18.08,51.38c-4.88,13.3-8.23,16.84-19.81,16.84h-5.17Z"/>
    <path class="st3" d="M434.69,720.83h11.39v13.59h10.33v8.23h-10.33v28.04c0,5.26,1.24,6.51,6.12,6.51h4.11v8.71h-8.42c-11,0-13.2-2.97-13.2-13.49v-29.76h-7.66v-8.23h7.66v-13.59Z"/>
    <path class="st3" d="M476.98,716.52v11.48h-11.39v-11.48h11.39ZM476.98,734.42v51.48h-11.39v-51.48h11.39Z"/>
    <path class="st3" d="M534.59,752.02h-11.1c-1.05-5.45-5.74-9.28-11.96-9.28-7.18,0-13.49,5.26-13.49,17.42s6.51,17.51,13.21,17.51c5.65,0,11.1-2.49,12.63-9.38h11.1c-2.3,12.06-12.92,18.85-23.92,18.85-14.93,0-24.78-11.58-24.78-26.89s9.86-26.98,25.26-26.98c11.29,0,21.05,7.37,23.06,18.75Z"/>
    <path class="st3" d="M573.73,748.48c-1.24-4.69-5.55-6.51-11.29-6.51-4.98,0-9.57,2.2-9.57,5.65s2.39,5.26,6.89,6.12l7.27,1.44c10.43,2.01,18.37,5.26,18.37,15.31,0,10.72-10.14,16.65-21.82,16.65-12.63,0-21.05-7.27-22.3-16.94h11.1c1.05,5.36,4.78,8.32,11.58,8.32,6.03,0,10.33-2.49,10.33-6.7s-3.83-6.03-8.9-7.08l-7.75-1.53c-8.71-1.82-15.5-5.55-15.5-15.02s9.86-14.93,20.96-14.93c10.05,0,19.23,4.88,21.34,15.21h-10.72Z"/>
  </g>
  <g>
    <path class="st3" d="M230.28,813.45h11.39v69.37h-11.39v-6.79c-3.06,5.07-8.42,8.04-15.31,8.04-12.25,0-22.39-10.43-22.39-26.98s10.14-26.89,22.39-26.89c6.89,0,12.25,2.97,15.31,8.04v-24.78ZM217.46,839.47c-7.66,0-13.01,6.79-13.01,17.61s5.36,17.7,13.01,17.7,13.3-5.84,13.3-17.7-5.93-17.61-13.3-17.61Z"/>
    <path class="st3" d="M251.43,868.66c0-12.92,15.88-15.98,34.64-17.99v-.96c0-8.8-4.98-11.48-10.72-11.48s-10.05,3.06-10.33,9.28h-11.2c.77-10.43,9.47-17.7,21.91-17.7s22.01,5.65,21.72,22.1c0,2.49-.19,8.61-.19,13.3,0,6.51.48,13.3,1.53,17.61h-10.43c-.38-2.2-.67-3.44-.96-6.99-3.35,5.65-9.28,8.23-16.94,8.23-11.2,0-19.04-6.03-19.04-15.41ZM286.36,858.61c-16.17,1.53-22.87,3.92-22.87,9.76,0,4.5,3.73,7.18,9.47,7.18,8.42,0,13.4-4.21,13.4-13.01v-3.92Z"/>
    <path class="st3" d="M310.57,817.75h11.39v13.59h10.33v8.23h-10.33v28.04c0,5.26,1.24,6.51,6.12,6.51h4.11v8.71h-8.42c-11,0-13.2-2.97-13.2-13.49v-29.76h-7.66v-8.23h7.66v-13.59Z"/>
    <path class="st3" d="M349.62,860.33c.77,9.57,7.46,14.26,13.97,14.26,6.03,0,10.62-2.3,12.63-7.18h11.2c-2.3,8.23-10.14,16.65-23.35,16.65-16.55,0-26.03-12.54-26.03-27.37s10.72-26.51,25.26-26.51c15.79,0,25.74,12.92,24.69,30.14h-38.37ZM349.62,852.01h26.79c-.29-8.04-6.41-12.92-13.11-12.92-5.36,0-12.63,3.25-13.68,12.92Z"/>
    <path class="st3" d="M421,817.75h11.39v13.59h10.33v8.23h-10.33v28.04c0,5.26,1.24,6.51,6.12,6.51h4.11v8.71h-8.42c-11,0-13.2-2.97-13.2-13.49v-29.76h-7.66v-8.23h7.66v-13.59Z"/>
    <path class="st3" d="M460.05,860.33c.77,9.57,7.46,14.26,13.97,14.26,6.03,0,10.62-2.3,12.63-7.18h11.2c-2.3,8.23-10.14,16.65-23.35,16.65-16.55,0-26.03-12.54-26.03-27.37s10.72-26.51,25.26-26.51c15.79,0,25.74,12.92,24.69,30.14h-38.37ZM460.05,852.01h26.79c-.29-8.04-6.41-12.92-13.11-12.92-5.36,0-12.63,3.25-13.68,12.92Z"/>
    <path class="st3" d="M553.15,848.95h-11.1c-1.05-5.45-5.74-9.28-11.96-9.28-7.18,0-13.49,5.26-13.49,17.42s6.51,17.51,13.21,17.51c5.65,0,11.1-2.49,12.63-9.38h11.1c-2.3,12.06-12.92,18.85-23.92,18.85-14.93,0-24.78-11.58-24.78-26.89s9.86-26.98,25.26-26.98c11.29,0,21.05,7.37,23.06,18.75Z"/>
    <path class="st3" d="M573.73,838.52c2.97-5.36,8.32-8.32,15.6-8.32,12.44,0,17.51,8.04,17.51,20.29v32.34h-11.39v-29.57c0-6.89-.96-13.78-9.76-13.78s-11.96,6.7-11.96,15.98v27.37h-11.39v-69.37h11.39v25.07Z"/>
    <path class="st3" d="M630.09,838.52c2.97-5.36,8.32-8.32,15.6-8.32,12.44,0,17.51,8.04,17.51,20.29v32.34h-11.39v-29.57c0-6.89-.96-13.78-9.76-13.78s-11.96,6.7-11.96,15.98v27.37h-11.39v-51.48h11.39v7.18Z"/>
    <path class="st3" d="M722.34,857.18c0,18.66-12.82,26.89-25.36,26.89s-25.36-8.23-25.36-26.89,12.82-26.98,25.36-26.98,25.36,8.42,25.36,26.98ZM696.98,874.78c7.27,0,13.59-5.65,13.59-17.61s-6.32-17.7-13.59-17.7-13.59,5.84-13.59,17.7,6.32,17.61,13.59,17.61Z"/>
    <path class="st3" d="M743.11,882.82h-11.39v-69.37h11.39v69.37Z"/>
    <path class="st3" d="M803.2,857.18c0,18.66-12.82,26.89-25.36,26.89s-25.36-8.23-25.36-26.89,12.82-26.98,25.36-26.98,25.36,8.42,25.36,26.98ZM777.85,874.78c7.27,0,13.59-5.65,13.59-17.61s-6.32-17.7-13.59-17.7-13.59,5.84-13.59,17.7,6.32,17.61,13.59,17.61Z"/>
    <path class="st3" d="M847.32,831.34h11.39v46.31c0,8.32-2.11,14.35-6.22,18.18-4.11,3.83-10.24,5.55-18.28,5.55-11.29,0-20.19-4.5-22.01-15.79h11.29c1.05,4.88,4.11,6.79,11,6.79,5.07,0,8.32-1.44,10.24-3.73,1.91-2.2,2.58-5.36,2.58-8.71v-6.03c-3.06,5.07-8.42,8.04-15.31,8.04-12.25,0-22.39-9.86-22.39-25.93s10.14-25.84,22.39-25.84c6.89,0,12.25,2.97,15.31,8.04v-6.89ZM834.5,839.28c-7.66,0-13.01,6.41-13.01,16.75s5.36,16.94,13.01,16.94,13.3-5.36,13.3-16.94-5.93-16.75-13.3-16.75Z"/>
    <path class="st3" d="M869.43,899.57v-8.71h4.31c4.98,0,7.08-.38,9.38-7.08l.57-1.24-18.66-51.19h12.44l11.67,36.94,11.67-36.94h11.67l-18.08,51.38c-4.88,13.3-8.23,16.84-19.81,16.84h-5.17Z"/>
  </g>
  <g>
    <path class="st1" d="M488.36,319.05c-33.1-34.57-72.71-54.14-128.71-55.29h-7.07s0,77.71,0,77.71c65.06,5.42,97.59,47.41,97.59,125.93,0,42.89-9.26,74.55-27.81,94.92-18.51,19.99-41.7,29.99-69.51,29.99h-80.22s-3.49-197.74-3.49-197.74h-87.79s3.24,250.05,3.24,250.05c.15,11.82,9.78,21.31,21.59,21.31h153.46c54.56,0,97.91-18.03,130.09-53.99,32.18-36.01,48.26-85.19,48.26-147.53,0-62.38-16.54-110.81-49.64-145.36Z"/>
    <g>
      <rect class="st4" x="231.89" y="224.18" width="87.77" height="79.15" rx="8.57" ry="8.57"/>
      <rect class="st2" x="163.44" y="159.32" width="60.34" height="54.42" rx="5.89" ry="5.89"/>
      <rect class="st2" x="99.33" y="319.07" width="49.12" height="44.3" rx="4.8" ry="4.8"/>
      <rect class="st1" x="99.33" y="221.57" width="49.12" height="44.3" rx="4.8" ry="4.8"/>
      <rect class="st5" x="163.43" y="273.64" width="27.84" height="25.11" rx="2.72" ry="2.72"/>
      <rect class="st5" x="282.8" y="333.66" width="27.84" height="25.11" rx="2.72" ry="2.72"/>
      <rect class="st0" x="193.62" y="330.3" width="38.27" height="34.51" rx="3.74" ry="3.74"/>
    </g>
  </g>
</svg>