<?xml version="1.0" encoding="UTF-8"?>
<svg id="Layer_1" xmlns="http://www.w3.org/2000/svg" version="1.1" viewBox="0 0 2000 1000">
  <!-- Generator: Adobe Illustrator 30.1.0, SVG Export Plug-In . SVG Version: 2.1.1 Build 136)  -->
  <defs>
    <style>
      .st0 {
        fill: #022873;
      }

      .st1 {
        fill: #009ee2;
      }

      .st2 {
        fill: #16205a;
      }

      .st3 {
        fill: #e6e8e7;
      }

      .st4 {
        fill: #34bf3a;
      }
    </style>
  </defs>
  <g>
    <path class="st2" d="M841.72,676.31c0-17.67,21.73-21.86,47.38-24.6v-1.31c0-12.04-6.81-15.71-14.66-15.71s-13.74,4.19-14.13,12.69h-15.31c1.05-14.26,12.96-24.21,29.97-24.21s30.1,7.72,29.71,30.23c0,3.4-.26,11.78-.26,18.19,0,8.9.65,18.19,2.09,24.08h-14.27c-.52-3.01-.92-4.71-1.31-9.55-4.58,7.72-12.69,11.25-23.16,11.25-15.31,0-26.04-8.25-26.04-21.07ZM889.49,662.57c-22.12,2.09-31.28,5.37-31.28,13.35,0,6.15,5.1,9.82,12.96,9.82,11.52,0,18.32-5.76,18.32-17.8v-5.37Z"/>
    <path class="st2" d="M935.95,635.08c4.06-7.33,11.39-11.39,21.33-11.39,17.01,0,23.95,10.99,23.95,27.75v44.24h-15.57v-40.44c0-9.42-1.31-18.85-13.35-18.85s-16.36,9.16-16.36,21.86v37.43h-15.57v-70.41h15.57v9.82Z"/>
    <path class="st2" d="M993.28,676.31c0-17.67,21.73-21.86,47.38-24.6v-1.31c0-12.04-6.81-15.71-14.66-15.71s-13.74,4.19-14.13,12.69h-15.31c1.05-14.26,12.96-24.21,29.97-24.21s30.1,7.72,29.71,30.23c0,3.4-.26,11.78-.26,18.19,0,8.9.65,18.19,2.09,24.08h-14.27c-.52-3.01-.92-4.71-1.31-9.55-4.58,7.72-12.69,11.25-23.16,11.25-15.31,0-26.04-8.25-26.04-21.07ZM1041.05,662.57c-22.12,2.09-31.28,5.37-31.28,13.35,0,6.15,5.1,9.82,12.96,9.82,11.52,0,18.32-5.76,18.32-17.8v-5.37Z"/>
    <path class="st2" d="M1087.51,695.68h-15.57v-94.88h15.57v94.88Z"/>
    <path class="st2" d="M1102.3,718.58v-11.91h5.89c6.81,0,9.68-.52,12.83-9.68l.79-1.7-25.52-70.02h17.01l15.97,50.52,15.97-50.52h15.97l-24.74,70.28c-6.67,18.19-11.26,23.03-27.09,23.03h-7.07Z"/>
    <path class="st2" d="M1172.18,606.68h15.57v18.58h14.13v11.25h-14.13v38.35c0,7.2,1.7,8.9,8.38,8.9h5.63v11.91h-11.52c-15.05,0-18.06-4.06-18.06-18.45v-40.7h-10.47v-11.25h10.47v-18.58Z"/>
    <path class="st2" d="M1230.03,600.79v15.71h-15.57v-15.71h15.57ZM1230.03,625.27v70.41h-15.57v-70.41h15.57Z"/>
    <path class="st2" d="M1308.82,649.35h-15.18c-1.44-7.46-7.85-12.69-16.36-12.69-9.82,0-18.45,7.2-18.45,23.82s8.9,23.95,18.06,23.95c7.72,0,15.18-3.4,17.28-12.83h15.18c-3.14,16.49-17.67,25.78-32.72,25.78-20.42,0-33.9-15.84-33.9-36.78s13.48-36.91,34.55-36.91c15.44,0,28.79,10.08,31.54,25.65Z"/>
    <path class="st2" d="M1362.35,644.51c-1.7-6.41-7.59-8.9-15.44-8.9-6.81,0-13.09,3.01-13.09,7.72s3.27,7.2,9.42,8.38l9.95,1.96c14.27,2.75,25.13,7.2,25.13,20.94,0,14.66-13.87,22.77-29.84,22.77-17.28,0-28.79-9.95-30.49-23.17h15.18c1.44,7.33,6.54,11.39,15.84,11.39,8.25,0,14.13-3.4,14.13-9.16s-5.23-8.25-12.17-9.68l-10.6-2.09c-11.91-2.49-21.2-7.59-21.2-20.55s13.48-20.42,28.66-20.42c13.74,0,26.31,6.67,29.19,20.81h-14.66Z"/>
  </g>
  <g>
    <path class="st2" d="M892.63,733.4h15.57v94.88h-15.57v-9.29c-4.19,6.94-11.52,10.99-20.94,10.99-16.75,0-30.62-14.27-30.62-36.91s13.87-36.78,30.62-36.78c9.42,0,16.75,4.06,20.94,10.99v-33.9ZM875.1,768.99c-10.47,0-17.8,9.29-17.8,24.08s7.33,24.21,17.8,24.21,18.19-7.98,18.19-24.21-8.11-24.08-18.19-24.08Z"/>
    <path class="st2" d="M921.56,808.91c0-17.67,21.73-21.86,47.38-24.6v-1.31c0-12.04-6.81-15.71-14.66-15.71s-13.74,4.19-14.13,12.69h-15.31c1.05-14.26,12.96-24.21,29.97-24.21s30.1,7.72,29.71,30.23c0,3.4-.26,11.78-.26,18.19,0,8.9.65,18.19,2.09,24.08h-14.27c-.52-3.01-.92-4.71-1.31-9.55-4.58,7.72-12.69,11.25-23.16,11.25-15.31,0-26.04-8.25-26.04-21.07ZM969.33,795.17c-22.12,2.09-31.28,5.37-31.28,13.35,0,6.15,5.1,9.82,12.96,9.82,11.52,0,18.32-5.76,18.32-17.8v-5.37Z"/>
    <path class="st2" d="M1002.44,739.29h15.57v18.58h14.13v11.25h-14.13v38.35c0,7.2,1.7,8.9,8.38,8.9h5.63v11.91h-11.52c-15.05,0-18.06-4.06-18.06-18.45v-40.7h-10.47v-11.25h10.47v-18.58Z"/>
    <path class="st2" d="M1055.84,797.52c1.05,13.09,10.21,19.5,19.11,19.5,8.25,0,14.53-3.14,17.28-9.82h15.31c-3.14,11.26-13.87,22.77-31.93,22.77-22.64,0-35.6-17.14-35.6-37.43s14.66-36.25,34.55-36.25c21.59,0,35.21,17.67,33.77,41.23h-52.48ZM1055.84,786.14h36.64c-.39-10.99-8.77-17.67-17.93-17.67-7.33,0-17.28,4.45-18.72,17.67Z"/>
    <path class="st2" d="M1153.47,739.29h15.57v18.58h14.13v11.25h-14.13v38.35c0,7.2,1.7,8.9,8.38,8.9h5.63v11.91h-11.52c-15.05,0-18.06-4.06-18.06-18.45v-40.7h-10.47v-11.25h10.47v-18.58Z"/>
    <path class="st2" d="M1206.87,797.52c1.05,13.09,10.21,19.5,19.11,19.5,8.25,0,14.53-3.14,17.28-9.82h15.31c-3.14,11.26-13.87,22.77-31.93,22.77-22.64,0-35.6-17.14-35.6-37.43s14.66-36.25,34.55-36.25c21.59,0,35.21,17.67,33.77,41.23h-52.48ZM1206.87,786.14h36.64c-.39-10.99-8.77-17.67-17.93-17.67-7.33,0-17.28,4.45-18.72,17.67Z"/>
    <path class="st2" d="M1334.21,781.95h-15.18c-1.44-7.46-7.85-12.69-16.36-12.69-9.82,0-18.45,7.2-18.45,23.82s8.9,23.95,18.06,23.95c7.72,0,15.18-3.4,17.28-12.83h15.18c-3.14,16.49-17.67,25.78-32.72,25.78-20.42,0-33.9-15.84-33.9-36.78s13.48-36.91,34.55-36.91c15.44,0,28.79,10.08,31.54,25.65Z"/>
    <path class="st2" d="M1362.35,767.69c4.06-7.33,11.39-11.39,21.33-11.39,17.01,0,23.95,10.99,23.95,27.75v44.24h-15.57v-40.44c0-9.42-1.31-18.85-13.35-18.85s-16.36,9.16-16.36,21.86v37.43h-15.57v-94.88h15.57v34.29Z"/>
    <path class="st2" d="M1439.43,767.69c4.06-7.33,11.39-11.39,21.33-11.39,17.01,0,23.95,10.99,23.95,27.75v44.24h-15.57v-40.44c0-9.42-1.31-18.85-13.35-18.85s-16.36,9.16-16.36,21.86v37.43h-15.57v-70.41h15.57v9.82Z"/>
    <path class="st2" d="M1565.6,793.21c0,25.52-17.54,36.78-34.68,36.78s-34.68-11.25-34.68-36.78,17.54-36.91,34.68-36.91,34.68,11.52,34.68,36.91ZM1530.92,817.29c9.95,0,18.58-7.72,18.58-24.08s-8.64-24.21-18.58-24.21-18.58,7.98-18.58,24.21,8.64,24.08,18.58,24.08Z"/>
    <path class="st2" d="M1594,828.28h-15.57v-94.88h15.57v94.88Z"/>
    <path class="st2" d="M1676.19,793.21c0,25.52-17.54,36.78-34.68,36.78s-34.68-11.25-34.68-36.78,17.54-36.91,34.68-36.91,34.68,11.52,34.68,36.91ZM1641.51,817.29c9.95,0,18.58-7.72,18.58-24.08s-8.64-24.21-18.58-24.21-18.58,7.98-18.58,24.21,8.64,24.08,18.58,24.08Z"/>
    <path class="st2" d="M1736.52,757.87h15.57v63.34c0,11.39-2.88,19.63-8.51,24.87-5.63,5.24-14,7.59-25,7.59-15.44,0-27.61-6.15-30.1-21.59h15.44c1.44,6.67,5.63,9.29,15.05,9.29,6.94,0,11.39-1.96,14-5.1,2.62-3.01,3.53-7.33,3.53-11.91v-8.25c-4.19,6.94-11.52,10.99-20.94,10.99-16.75,0-30.62-13.48-30.62-35.47s13.87-35.34,30.62-35.34c9.42,0,16.75,4.06,20.94,10.99v-9.42ZM1718.98,768.73c-10.47,0-17.8,8.77-17.8,22.9s7.33,23.16,17.8,23.16,18.19-7.33,18.19-23.16-8.11-22.9-18.19-22.9Z"/>
    <path class="st2" d="M1766.75,851.18v-11.91h5.89c6.81,0,9.68-.52,12.83-9.68l.79-1.7-25.52-70.02h17.01l15.97,50.52,15.97-50.52h15.97l-24.74,70.28c-6.67,18.19-11.26,23.03-27.09,23.03h-7.07Z"/>
  </g>
  <g>
    <path class="st0" d="M706.41,359.56c-45.27-47.28-99.44-74.04-176.03-75.62h-9.67s0,106.28,0,106.28c88.97,7.41,133.47,64.84,133.47,172.23,0,58.66-12.67,101.96-38.04,129.81-25.31,27.34-57.03,41.01-95.07,41.01h-109.71s-4.78-270.44-4.78-270.44h-120.06s4.43,341.97,4.43,341.97c.21,16.17,13.38,29.17,29.55,29.17h209.86c74.62,0,133.9-24.65,177.92-73.84,44.01-49.25,66.01-116.52,66.01-201.77,0-85.31-22.62-151.55-67.9-198.8Z"/>
    <g>
      <rect class="st0" x="355.66" y="229.8" width="120.03" height="108.25" rx="11.73" ry="11.73"/>
      <rect class="st1" x="262.03" y="141.1" width="82.53" height="74.43" rx="8.06" ry="8.06"/>
      <rect class="st1" x="174.35" y="359.58" width="67.18" height="60.58" rx="6.56" ry="6.56"/>
      <rect class="st3" x="174.35" y="226.24" width="67.18" height="60.58" rx="6.56" ry="6.56"/>
      <rect class="st4" x="262.03" y="297.45" width="38.08" height="34.34" rx="3.72" ry="3.72"/>
      <rect class="st4" x="425.28" y="379.55" width="38.08" height="34.34" rx="3.72" ry="3.72"/>
      <rect class="st0" x="303.32" y="374.95" width="52.34" height="47.2" rx="5.11" ry="5.11"/>
    </g>
  </g>
</svg>