<svg xmlns="http://www.w3.org/2000/svg" viewBox="0 0 40 40" fill="none">
  <!-- Pixel dots -->
  <rect x="10" y="0" width="8" height="8" rx="2" fill="#1598CC"/>
  <rect x="20" y="0" width="6" height="6" rx="1.5" fill="#1598CC" opacity="0.6"/>
  <rect x="2" y="8" width="6" height="6" rx="1.5" fill="#1598CC" opacity="0.4"/>
  <rect x="18" y="8" width="10" height="10" rx="2" fill="#EF5829"/>
  <rect x="30" y="8" width="6" height="6" rx="1.5" fill="#EF5829" opacity="0.5"/>
  <rect x="12" y="18" width="7" height="7" rx="1.5" fill="#34BF3A"/>
  <rect x="22" y="20" width="5" height="5" rx="1" fill="#1598CC" opacity="0.5"/>
  <!-- D shape -->
  <path d="M2 24 L2 40 L14 40 C24 40 30 35 30 32 C30 29 24 24 14 24 Z M8 28 L14 28 C20 28 24 29.5 24 32 C24 34.5 20 36 14 36 L8 36 Z" fill="#FFFFFF"/>
</svg>
