<?xml version="1.0" encoding="UTF-8"?>
<svg id="Layer_1" xmlns="http://www.w3.org/2000/svg" version="1.1" viewBox="0 0 2193.65 787.3">
  <!-- Generator: Adobe Illustrator 30.1.0, SVG Export Plug-In . SVG Version: 2.1.1 Build 136)  -->
  <defs>
    <style>
      .st0 {
        fill: #f28d35;
      }

      .st1 {
        fill: #009ee2;
      }

      .st2 {
        fill: #e6e8e7;
      }

      .st3 {
        fill: #ef5829;
      }

      .st4 {
        fill: #1598cc;
      }

      .st5 {
        fill: #34bf3a;
      }
    </style>
  </defs>
  <g>
    <path class="st2" d="M631.71,563.58c-13.86-11.59-20.79-28-20.79-49.21s6.52-37.47,19.55-48.78c13.03-11.03,34.21-18.1,63.54-21.21,29.34-3.11,47.67-6.36,55.01-9.76,7.48-3.53,11.21-10.18,11.21-19.94s-3.04-17.04-9.1-21.85c-6.07-4.81-15.87-7.21-29.41-7.21s-23.66,2.69-30.36,8.06c-6.7,5.38-10.61,14-11.74,25.88h-61.89c1.7-24.6,11.84-43.27,30.43-55.99,18.58-12.73,44.1-19.09,76.55-19.09s56.77,5.45,72.96,16.33c16.19,10.89,24.29,26.23,24.29,46.02v120.47c0,22.91,2.61,38.81,7.85,47.72h-62.57c-2.26-6.79-3.75-13.93-4.45-21.42-17.82,18.38-42.99,27.57-75.5,27.57-23.19-.14-41.71-6.01-55.57-17.6ZM710.51,539.82c33.15,0,49.72-16.89,49.72-50.69v-23.97c-3.67,3.11-8.61,5.38-14.81,6.79-6.21,1.42-16.65,3.18-31.31,5.3-14.67,1.98-25.25,5.69-31.74,11.13-6.49,5.45-9.73,13.04-9.73,22.8,0,19.09,12.62,28.63,37.87,28.63Z"/>
    <path class="st2" d="M957.48,577.58c-26.87,0-45.46-4.52-55.78-13.57-10.32-9.05-15.48-21.85-15.48-38.39v-133.83h-37.33v-41.36h37.33v-67.23h61.72v67.23h45.18v41.36h-45.18v114.36c.14,9.48,1.91,16.01,5.3,19.6s9.47,5.38,18.24,5.38,15.98-.56,21.63-1.7v46.12c-8.48,1.35-20.36,2.03-35.63,2.03Z"/>
    <path class="st2" d="M1034.05,563.58c-13.86-11.59-20.79-28-20.79-49.21s6.52-37.47,19.55-48.78c13.03-11.03,34.21-18.1,63.54-21.21,29.34-3.11,47.67-6.36,55.01-9.76,7.48-3.53,11.21-10.18,11.21-19.94s-3.04-17.04-9.1-21.85c-6.07-4.81-15.87-7.21-29.41-7.21s-23.66,2.69-30.36,8.06c-6.7,5.38-10.61,14-11.74,25.88h-61.89c1.7-24.6,11.84-43.27,30.43-55.99,18.58-12.73,44.1-19.09,76.55-19.09s56.77,5.45,72.96,16.33c16.19,10.89,24.29,26.23,24.29,46.02v120.47c0,22.91,2.61,38.81,7.85,47.72h-62.57c-2.26-6.79-3.75-13.93-4.45-21.42-17.82,18.38-42.99,27.57-75.5,27.57-23.19-.14-41.71-6.01-55.57-17.6ZM1112.86,539.82c33.15,0,49.72-16.89,49.72-50.69v-23.97c-3.67,3.11-8.61,5.38-14.81,6.79-6.21,1.42-16.65,3.18-31.31,5.3-14.67,1.98-25.25,5.69-31.74,11.13-6.49,5.45-9.73,13.04-9.73,22.8,0,19.09,12.62,28.63,37.87,28.63Z"/>
    <path class="st2" d="M1335.65,264.95v310.08h-61.72v-310.08h61.72Z"/>
    <path class="st2" d="M1395.46,563.58c-13.86-11.59-20.79-28-20.79-49.21s6.52-37.47,19.55-48.78c13.03-11.03,34.21-18.1,63.54-21.21,29.34-3.11,47.67-6.36,55.01-9.76,7.48-3.53,11.21-10.18,11.21-19.94s-3.04-17.04-9.1-21.85c-6.07-4.81-15.87-7.21-29.41-7.21s-23.66,2.69-30.36,8.06c-6.7,5.38-10.61,14-11.74,25.88h-61.89c1.7-24.6,11.84-43.27,30.43-55.99,18.58-12.73,44.1-19.09,76.55-19.09s56.77,5.45,72.96,16.33c16.19,10.89,24.29,26.23,24.29,46.02v120.47c0,22.91,2.61,38.81,7.85,47.72h-62.57c-2.26-6.79-3.75-13.93-4.45-21.42-17.82,18.38-42.99,27.57-75.5,27.57-23.19-.14-41.71-6.01-55.57-17.6ZM1474.27,539.82c33.15,0,49.72-16.89,49.72-50.69v-23.97c-3.67,3.11-8.61,5.38-14.81,6.79-6.21,1.42-16.65,3.18-31.31,5.3-14.67,1.98-25.25,5.69-31.74,11.13-6.49,5.45-9.73,13.04-9.73,22.8,0,19.09,12.62,28.63,37.87,28.63Z"/>
    <path class="st2" d="M1700.87,264.95v166.28l77.84-80.81h72.96l-84.84,82.5,94.38,142.1h-74.87l-61.51-100.32-23.97,22.91v77.41h-61.72v-310.08h61.72Z"/>
    <path class="st2" d="M1980.41,581.18c-34.5-.14-62.18-11.1-83.04-32.87-20.86-21.77-31.36-49.84-31.5-84.2-.14-34.36,10.53-62.85,32.03-85.47,21.49-22.62,48.92-34,82.29-34.15,33.37-.14,60.09,11.24,80.17,34.15,19.79,22.91,29.69,52.11,29.69,87.59l-.42,11.45h-162.25c1.7,38.04,20.01,57.05,54.93,57.05,11.17,0,21.49-2.83,30.97-8.48,9.47-5.65,15.48-12.58,18.03-20.79h54.3c-8.48,25.59-21.35,44.61-38.6,57.05-17.25,12.44-39.45,18.66-66.6,18.66ZM2011.59,402.23c-7.78-7.67-19.02-11.51-33.72-11.51s-26.44,4.23-35.21,12.68c-8.77,8.45-13.86,20.21-15.27,35.26h100.32c-2.97-16.62-8.34-28.76-16.12-36.43Z"/>
  </g>
  <g>
    <path class="st4" d="M900.19,681.28c0-13.41,16.49-16.59,35.96-18.67v-.99c0-9.14-5.17-11.92-11.12-11.92s-10.43,3.18-10.73,9.64h-11.62c.79-10.83,9.83-18.38,22.75-18.38s22.85,5.86,22.55,22.95c0,2.58-.2,8.94-.2,13.81,0,6.75.5,13.81,1.59,18.28h-10.83c-.4-2.28-.7-3.58-.99-7.25-3.48,5.86-9.63,8.54-17.58,8.54-11.62,0-19.77-6.26-19.77-15.99ZM936.45,670.86c-16.79,1.59-23.74,4.07-23.74,10.13,0,4.67,3.87,7.45,9.83,7.45,8.74,0,13.91-4.37,13.91-13.51v-4.07Z"/>
    <path class="st4" d="M971.71,649.99c3.08-5.56,8.64-8.64,16.19-8.64,12.91,0,18.18,8.34,18.18,21.06v33.58h-11.82v-30.69c0-7.15-.99-14.3-10.13-14.3s-12.42,6.95-12.42,16.59v28.41h-11.82v-53.44h11.82v7.45Z"/>
    <path class="st4" d="M1015.21,681.28c0-13.41,16.49-16.59,35.96-18.67v-.99c0-9.14-5.17-11.92-11.12-11.92s-10.43,3.18-10.73,9.64h-11.62c.79-10.83,9.83-18.38,22.75-18.38s22.85,5.86,22.55,22.95c0,2.58-.2,8.94-.2,13.81,0,6.75.5,13.81,1.59,18.28h-10.83c-.4-2.28-.7-3.58-.99-7.25-3.48,5.86-9.63,8.54-17.58,8.54-11.62,0-19.77-6.26-19.77-15.99ZM1051.47,670.86c-16.79,1.59-23.74,4.07-23.74,10.13,0,4.67,3.87,7.45,9.83,7.45,8.74,0,13.91-4.37,13.91-13.51v-4.07Z"/>
    <path class="st4" d="M1086.73,695.99h-11.82v-72.02h11.82v72.02Z"/>
    <path class="st4" d="M1097.95,713.37v-9.04h4.47c5.17,0,7.35-.4,9.74-7.35l.6-1.29-19.37-53.14h12.91l12.12,38.34,12.12-38.34h12.12l-18.77,53.34c-5.07,13.81-8.54,17.48-20.56,17.48h-5.36Z"/>
    <path class="st4" d="M1150.99,628.44h11.82v14.11h10.73v8.54h-10.73v29.11c0,5.46,1.29,6.75,6.36,6.75h4.27v9.04h-8.74c-11.42,0-13.71-3.08-13.71-14.01v-30.89h-7.95v-8.54h7.95v-14.11Z"/>
    <path class="st4" d="M1194.9,623.97v11.92h-11.82v-11.92h11.82ZM1194.9,642.54v53.44h-11.82v-53.44h11.82Z"/>
    <path class="st4" d="M1254.7,660.82h-11.52c-1.09-5.66-5.96-9.64-12.42-9.64-7.45,0-14.01,5.46-14.01,18.08s6.75,18.18,13.71,18.18c5.86,0,11.52-2.58,13.11-9.73h11.52c-2.38,12.52-13.41,19.57-24.83,19.57-15.5,0-25.73-12.02-25.73-27.91s10.23-28.01,26.22-28.01c11.72,0,21.85,7.65,23.94,19.47Z"/>
    <path class="st4" d="M1295.32,657.15c-1.29-4.87-5.76-6.75-11.72-6.75-5.17,0-9.93,2.28-9.93,5.86s2.48,5.46,7.15,6.36l7.55,1.49c10.83,2.09,19.07,5.46,19.07,15.89,0,11.13-10.53,17.28-22.65,17.28-13.11,0-21.85-7.55-23.15-17.58h11.52c1.09,5.56,4.97,8.64,12.02,8.64,6.26,0,10.73-2.58,10.73-6.95s-3.97-6.26-9.24-7.35l-8.05-1.59c-9.04-1.89-16.09-5.76-16.09-15.6s10.23-15.5,21.75-15.5c10.43,0,19.97,5.07,22.15,15.79h-11.12Z"/>
    <path class="st4" d="M1375.38,623.97h11.82v72.02h-11.82v-7.05c-3.18,5.26-8.74,8.34-15.89,8.34-12.71,0-23.24-10.83-23.24-28.01s10.53-27.91,23.24-27.91c7.15,0,12.71,3.08,15.89,8.34v-25.73ZM1362.07,650.99c-7.95,0-13.51,7.05-13.51,18.28s5.56,18.38,13.51,18.38,13.81-6.06,13.81-18.38-6.16-18.28-13.81-18.28Z"/>
    <path class="st4" d="M1397.33,681.28c0-13.41,16.49-16.59,35.96-18.67v-.99c0-9.14-5.17-11.92-11.12-11.92s-10.43,3.18-10.73,9.64h-11.62c.79-10.83,9.83-18.38,22.75-18.38s22.85,5.86,22.55,22.95c0,2.58-.2,8.94-.2,13.81,0,6.75.5,13.81,1.59,18.28h-10.83c-.4-2.28-.7-3.58-.99-7.25-3.48,5.86-9.63,8.54-17.58,8.54-11.62,0-19.77-6.26-19.77-15.99ZM1433.58,670.86c-16.79,1.59-23.74,4.07-23.74,10.13,0,4.67,3.87,7.45,9.83,7.45,8.74,0,13.91-4.37,13.91-13.51v-4.07Z"/>
    <path class="st4" d="M1458.71,628.44h11.82v14.11h10.73v8.54h-10.73v29.11c0,5.46,1.29,6.75,6.36,6.75h4.27v9.04h-8.74c-11.42,0-13.71-3.08-13.71-14.01v-30.89h-7.95v-8.54h7.95v-14.11Z"/>
    <path class="st4" d="M1487.61,681.28c0-13.41,16.49-16.59,35.96-18.67v-.99c0-9.14-5.17-11.92-11.12-11.92s-10.43,3.18-10.73,9.64h-11.62c.79-10.83,9.83-18.38,22.75-18.38s22.85,5.86,22.55,22.95c0,2.58-.2,8.94-.2,13.81,0,6.75.5,13.81,1.59,18.28h-10.83c-.4-2.28-.7-3.58-.99-7.25-3.48,5.86-9.63,8.54-17.58,8.54-11.62,0-19.77-6.26-19.77-15.99ZM1523.87,670.86c-16.79,1.59-23.74,4.07-23.74,10.13,0,4.67,3.87,7.45,9.83,7.45,8.74,0,13.91-4.37,13.91-13.51v-4.07Z"/>
    <path class="st4" d="M1571.84,628.44h11.82v14.11h10.73v8.54h-10.73v29.11c0,5.46,1.29,6.75,6.36,6.75h4.27v9.04h-8.74c-11.42,0-13.71-3.08-13.71-14.01v-30.89h-7.95v-8.54h7.95v-14.11Z"/>
    <path class="st4" d="M1612.37,672.64c.79,9.93,7.75,14.8,14.5,14.8,6.26,0,11.03-2.38,13.11-7.45h11.62c-2.38,8.54-10.53,17.28-24.24,17.28-17.19,0-27.02-13.01-27.02-28.41s11.13-27.52,26.22-27.52c16.39,0,26.72,13.41,25.63,31.29h-39.83ZM1612.37,664h27.81c-.3-8.34-6.66-13.41-13.61-13.41-5.56,0-13.11,3.38-14.21,13.41Z"/>
    <path class="st4" d="M1709.02,660.82h-11.52c-1.09-5.66-5.96-9.64-12.42-9.64-7.45,0-14.01,5.46-14.01,18.08s6.75,18.18,13.71,18.18c5.86,0,11.52-2.58,13.11-9.73h11.52c-2.38,12.52-13.41,19.57-24.83,19.57-15.5,0-25.73-12.02-25.73-27.91s10.23-28.01,26.22-28.01c11.72,0,21.85,7.65,23.94,19.47Z"/>
    <path class="st4" d="M1730.37,649.99c3.08-5.56,8.64-8.64,16.19-8.64,12.91,0,18.18,8.34,18.18,21.06v33.58h-11.82v-30.69c0-7.15-.99-14.3-10.13-14.3s-12.42,6.95-12.42,16.59v28.41h-11.82v-72.02h11.82v26.03Z"/>
    <path class="st4" d="M1788.88,649.99c3.08-5.56,8.64-8.64,16.19-8.64,12.91,0,18.18,8.34,18.18,21.06v33.58h-11.82v-30.69c0-7.15-.99-14.3-10.13-14.3s-12.42,6.95-12.42,16.59v28.41h-11.82v-53.44h11.82v7.45Z"/>
    <path class="st4" d="M1884.63,669.37c0,19.37-13.31,27.91-26.32,27.91s-26.32-8.54-26.32-27.91,13.31-28.01,26.32-28.01,26.32,8.74,26.32,28.01ZM1858.31,687.64c7.55,0,14.11-5.86,14.11-18.28s-6.56-18.38-14.11-18.38-14.11,6.06-14.11,18.38,6.56,18.28,14.11,18.28Z"/>
    <path class="st4" d="M1906.18,695.99h-11.82v-72.02h11.82v72.02Z"/>
    <path class="st4" d="M1968.56,669.37c0,19.37-13.31,27.91-26.32,27.91s-26.32-8.54-26.32-27.91,13.31-28.01,26.32-28.01,26.32,8.74,26.32,28.01ZM1942.24,687.64c7.55,0,14.11-5.86,14.11-18.28s-6.56-18.38-14.11-18.38-14.11,6.06-14.11,18.38,6.56,18.28,14.11,18.28Z"/>
    <path class="st4" d="M2014.35,642.54h11.82v48.08c0,8.64-2.19,14.9-6.46,18.87-4.27,3.97-10.63,5.76-18.97,5.76-11.72,0-20.96-4.67-22.85-16.39h11.72c1.09,5.07,4.27,7.05,11.42,7.05,5.27,0,8.64-1.49,10.63-3.87,1.99-2.28,2.68-5.56,2.68-9.04v-6.26c-3.18,5.26-8.74,8.34-15.89,8.34-12.71,0-23.24-10.23-23.24-26.92s10.53-26.82,23.24-26.82c7.15,0,12.71,3.08,15.89,8.34v-7.15ZM2001.04,650.79c-7.95,0-13.51,6.66-13.51,17.38s5.56,17.58,13.51,17.58,13.81-5.56,13.81-17.58-6.16-17.38-13.81-17.38Z"/>
    <path class="st4" d="M2037.29,713.37v-9.04h4.47c5.17,0,7.35-.4,9.74-7.35l.6-1.29-19.37-53.14h12.91l12.12,38.34,12.12-38.34h12.12l-18.77,53.34c-5.07,13.81-8.54,17.48-20.56,17.48h-5.36Z"/>
  </g>
  <g>
    <path class="st2" d="M516.79,215.38c-34.36-35.88-75.47-56.2-133.6-57.39h-7.34s0,80.66,0,80.66c67.53,5.62,101.3,49.21,101.3,130.71,0,44.52-9.62,77.38-28.87,98.52-19.21,20.75-43.28,31.13-72.15,31.13h-83.26s-3.62-205.25-3.62-205.25h-91.12s3.36,259.55,3.36,259.55c.16,12.27,10.15,22.13,22.41,22.13h159.29c56.63,0,101.63-18.71,135.03-56.04,33.4-37.38,50.1-88.43,50.1-153.13,0-64.75-17.17-115.02-51.53-150.88Z"/>
    <g>
      <rect class="st3" x="250.59" y="116.9" width="91.1" height="82.15" rx="8.9" ry="8.9"/>
      <rect class="st1" x="179.53" y="49.58" width="62.63" height="56.49" rx="6.12" ry="6.12"/>
      <rect class="st1" x="112.98" y="215.4" width="50.99" height="45.98" rx="4.98" ry="4.98"/>
      <rect class="st2" x="112.98" y="114.2" width="50.99" height="45.98" rx="4.98" ry="4.98"/>
      <rect class="st5" x="179.53" y="168.25" width="28.9" height="26.06" rx="2.82" ry="2.82"/>
      <rect class="st5" x="303.43" y="230.55" width="28.9" height="26.06" rx="2.82" ry="2.82"/>
      <rect class="st0" x="210.86" y="227.06" width="39.72" height="35.82" rx="3.88" ry="3.88"/>
    </g>
  </g>
</svg>