<?xml version="1.0" encoding="UTF-8"?>
<svg id="Layer_1" xmlns="http://www.w3.org/2000/svg" version="1.1" viewBox="0 0 2193.65 787.3">
  <!-- Generator: Adobe Illustrator 30.1.0, SVG Export Plug-In . SVG Version: 2.1.1 Build 136)  -->
  <defs>
    <style>
      .st0 {
        fill: #f28d35;
      }

      .st1 {
        fill: #022873;
      }

      .st2 {
        fill: #e6e8e7;
      }

      .st3 {
        fill: #ef5829;
      }

      .st4 {
        fill: #34bf3a;
      }
    </style>
  </defs>
  <g>
    <path class="st2" d="M598.99,584.65c-13.86-11.59-20.78-27.99-20.78-49.2s6.51-37.47,19.55-48.78c13.03-11.03,34.21-18.1,63.54-21.21,29.34-3.11,47.67-6.36,55.01-9.76,7.48-3.53,11.21-10.18,11.21-19.94s-3.04-17.04-9.1-21.84c-6.06-4.8-15.87-7.21-29.41-7.21s-23.66,2.69-30.36,8.06c-6.7,5.38-10.61,14-11.74,25.87h-61.89c1.7-24.6,11.84-43.26,30.42-55.99,18.58-12.72,44.09-19.09,76.54-19.09s56.77,5.44,72.96,16.33c16.19,10.89,24.28,26.23,24.28,46.02v120.46c0,22.9,2.61,38.81,7.85,47.72h-62.56c-2.26-6.79-3.75-13.92-4.45-21.42-17.81,18.38-42.98,27.57-75.5,27.57-23.19-.14-41.71-6.01-55.56-17.6ZM677.79,560.89c33.14,0,49.72-16.89,49.72-50.69v-23.97c-3.67,3.11-8.61,5.37-14.81,6.79-6.21,1.42-16.64,3.18-31.31,5.3-14.67,1.98-25.25,5.69-31.74,11.13-6.49,5.44-9.73,13.04-9.73,22.8,0,19.09,12.62,28.63,37.87,28.63Z"/>
    <path class="st2" d="M924.75,598.64c-26.86,0-45.46-4.52-55.78-13.57-10.32-9.05-15.48-21.84-15.48-38.39v-133.82h-37.33v-41.36h37.33v-67.23h61.72v67.23h45.17v41.36h-45.17v114.35c.14,9.48,1.91,16.01,5.3,19.6,3.39,3.59,9.47,5.38,18.24,5.38s15.98-.56,21.63-1.7v46.11c-8.48,1.35-20.36,2.03-35.63,2.03Z"/>
    <path class="st2" d="M1001.31,584.65c-13.86-11.59-20.78-27.99-20.78-49.2s6.51-37.47,19.55-48.78c13.03-11.03,34.21-18.1,63.54-21.21,29.34-3.11,47.67-6.36,55.01-9.76,7.48-3.53,11.21-10.18,11.21-19.94s-3.04-17.04-9.1-21.84c-6.06-4.8-15.87-7.21-29.41-7.21s-23.66,2.69-30.36,8.06c-6.7,5.38-10.61,14-11.74,25.87h-61.89c1.7-24.6,11.84-43.26,30.42-55.99,18.58-12.72,44.09-19.09,76.54-19.09s56.77,5.44,72.96,16.33c16.19,10.89,24.28,26.23,24.28,46.02v120.46c0,22.9,2.61,38.81,7.85,47.72h-62.56c-2.26-6.79-3.75-13.92-4.45-21.42-17.81,18.38-42.98,27.57-75.5,27.57-23.19-.14-41.71-6.01-55.56-17.6ZM1080.11,560.89c33.14,0,49.72-16.89,49.72-50.69v-23.97c-3.67,3.11-8.61,5.37-14.81,6.79-6.21,1.42-16.64,3.18-31.31,5.3-14.67,1.98-25.25,5.69-31.74,11.13-6.49,5.44-9.73,13.04-9.73,22.8,0,19.09,12.62,28.63,37.87,28.63Z"/>
    <path class="st2" d="M1302.89,286.04v310.06h-61.72v-310.06h61.72Z"/>
    <path class="st2" d="M1362.69,584.65c-13.86-11.59-20.78-27.99-20.78-49.2s6.51-37.47,19.55-48.78c13.03-11.03,34.21-18.1,63.54-21.21,29.34-3.11,47.67-6.36,55.01-9.76,7.48-3.53,11.21-10.18,11.21-19.94s-3.04-17.04-9.1-21.84c-6.06-4.8-15.87-7.21-29.41-7.21s-23.66,2.69-30.36,8.06c-6.7,5.38-10.61,14-11.74,25.87h-61.89c1.7-24.6,11.84-43.26,30.42-55.99,18.58-12.72,44.09-19.09,76.54-19.09s56.77,5.44,72.96,16.33c16.19,10.89,24.28,26.23,24.28,46.02v120.46c0,22.9,2.61,38.81,7.85,47.72h-62.56c-2.26-6.79-3.75-13.92-4.45-21.42-17.81,18.38-42.98,27.57-75.5,27.57-23.19-.14-41.71-6.01-55.56-17.6ZM1441.5,560.89c33.14,0,49.72-16.89,49.72-50.69v-23.97c-3.67,3.11-8.61,5.37-14.81,6.79-6.21,1.42-16.64,3.18-31.31,5.3-14.67,1.98-25.25,5.69-31.74,11.13-6.49,5.44-9.73,13.04-9.73,22.8,0,19.09,12.62,28.63,37.87,28.63Z"/>
    <path class="st2" d="M1668.09,286.04v166.27l77.83-80.8h72.96l-84.83,82.5,94.38,142.09h-74.86l-61.5-100.31-23.96,22.9v77.41h-61.72v-310.06h61.72Z"/>
    <path class="st2" d="M1947.61,602.25c-34.5-.14-62.18-11.1-83.03-32.87-20.86-21.77-31.35-49.84-31.49-84.2-.14-34.36,10.53-62.85,32.02-85.47,21.49-22.62,48.92-34,82.29-34.15,33.37-.14,60.09,11.24,80.17,34.15,19.79,22.9,29.69,52.1,29.69,87.59l-.42,11.45h-162.24c1.7,38.04,20.01,57.05,54.93,57.05,11.17,0,21.49-2.83,30.96-8.48,9.47-5.65,15.48-12.58,18.03-20.78h54.29c-8.48,25.59-21.35,44.61-38.6,57.05-17.25,12.44-39.45,18.66-66.59,18.66ZM1978.79,423.31c-7.78-7.67-19.02-11.51-33.72-11.51s-26.44,4.22-35.21,12.68c-8.77,8.45-13.86,20.2-15.27,35.26h100.31c-2.97-16.62-8.34-28.76-16.12-36.42Z"/>
  </g>
  <g>
    <path class="st2" d="M867.46,702.34c0-13.41,16.49-16.59,35.95-18.67v-.99c0-9.14-5.16-11.92-11.12-11.92s-10.43,3.18-10.73,9.63h-11.62c.79-10.83,9.83-18.37,22.74-18.37s22.84,5.86,22.55,22.94c0,2.58-.2,8.94-.2,13.81,0,6.75.5,13.81,1.59,18.27h-10.83c-.4-2.28-.7-3.58-.99-7.25-3.48,5.86-9.63,8.54-17.58,8.54-11.62,0-19.76-6.26-19.76-15.99ZM903.71,691.91c-16.79,1.59-23.74,4.07-23.74,10.13,0,4.67,3.87,7.45,9.83,7.45,8.74,0,13.9-4.37,13.9-13.51v-4.07Z"/>
    <path class="st2" d="M938.97,671.05c3.08-5.56,8.64-8.64,16.19-8.64,12.91,0,18.18,8.34,18.18,21.06v33.57h-11.82v-30.69c0-7.15-.99-14.3-10.13-14.3s-12.42,6.95-12.42,16.59v28.41h-11.82v-53.43h11.82v7.45Z"/>
    <path class="st2" d="M982.47,702.34c0-13.41,16.49-16.59,35.95-18.67v-.99c0-9.14-5.16-11.92-11.12-11.92s-10.43,3.18-10.73,9.63h-11.62c.79-10.83,9.83-18.37,22.74-18.37s22.84,5.86,22.55,22.94c0,2.58-.2,8.94-.2,13.81,0,6.75.5,13.81,1.59,18.27h-10.83c-.4-2.28-.7-3.58-.99-7.25-3.48,5.86-9.63,8.54-17.58,8.54-11.62,0-19.76-6.26-19.76-15.99ZM1018.72,691.91c-16.79,1.59-23.74,4.07-23.74,10.13,0,4.67,3.87,7.45,9.83,7.45,8.74,0,13.9-4.37,13.9-13.51v-4.07Z"/>
    <path class="st2" d="M1053.98,717.03h-11.82v-72.01h11.82v72.01Z"/>
    <path class="st2" d="M1065.2,734.42v-9.04h4.47c5.17,0,7.35-.4,9.73-7.35l.6-1.29-19.37-53.14h12.91l12.12,38.34,12.12-38.34h12.12l-18.77,53.33c-5.07,13.81-8.54,17.48-20.56,17.48h-5.36Z"/>
    <path class="st2" d="M1118.24,649.5h11.82v14.1h10.73v8.54h-10.73v29.1c0,5.46,1.29,6.75,6.36,6.75h4.27v9.04h-8.74c-11.42,0-13.71-3.08-13.71-14v-30.89h-7.95v-8.54h7.95v-14.1Z"/>
    <path class="st2" d="M1162.14,645.03v11.92h-11.82v-11.92h11.82ZM1162.14,663.6v53.43h-11.82v-53.43h11.82Z"/>
    <path class="st2" d="M1221.93,681.88h-11.52c-1.09-5.66-5.96-9.63-12.42-9.63-7.45,0-14,5.46-14,18.08s6.75,18.18,13.71,18.18c5.86,0,11.52-2.58,13.11-9.73h11.52c-2.38,12.51-13.41,19.57-24.83,19.57-15.49,0-25.72-12.02-25.72-27.91s10.23-28.01,26.22-28.01c11.72,0,21.85,7.65,23.94,19.47Z"/>
    <path class="st2" d="M1262.55,678.2c-1.29-4.87-5.76-6.75-11.72-6.75-5.17,0-9.93,2.28-9.93,5.86s2.48,5.46,7.15,6.36l7.55,1.49c10.83,2.09,19.07,5.46,19.07,15.89,0,11.12-10.53,17.28-22.65,17.28-13.11,0-21.85-7.55-23.14-17.58h11.52c1.09,5.56,4.97,8.64,12.02,8.64,6.26,0,10.73-2.58,10.73-6.95s-3.97-6.26-9.24-7.35l-8.04-1.59c-9.04-1.89-16.09-5.76-16.09-15.59s10.23-15.49,21.75-15.49c10.43,0,19.96,5.07,22.15,15.79h-11.12Z"/>
    <path class="st2" d="M1342.61,645.03h11.82v72.01h-11.82v-7.05c-3.18,5.26-8.74,8.34-15.89,8.34-12.71,0-23.24-10.83-23.24-28.01s10.53-27.91,23.24-27.91c7.15,0,12.71,3.08,15.89,8.34v-25.72ZM1329.3,672.04c-7.95,0-13.51,7.05-13.51,18.27s5.56,18.37,13.51,18.37,13.81-6.06,13.81-18.37-6.16-18.27-13.81-18.27Z"/>
    <path class="st2" d="M1364.56,702.34c0-13.41,16.49-16.59,35.95-18.67v-.99c0-9.14-5.16-11.92-11.12-11.92s-10.43,3.18-10.73,9.63h-11.62c.79-10.83,9.83-18.37,22.74-18.37s22.84,5.86,22.55,22.94c0,2.58-.2,8.94-.2,13.81,0,6.75.5,13.81,1.59,18.27h-10.83c-.4-2.28-.7-3.58-.99-7.25-3.48,5.86-9.63,8.54-17.58,8.54-11.62,0-19.76-6.26-19.76-15.99ZM1400.81,691.91c-16.79,1.59-23.74,4.07-23.74,10.13,0,4.67,3.87,7.45,9.83,7.45,8.74,0,13.9-4.37,13.9-13.51v-4.07Z"/>
    <path class="st2" d="M1425.94,649.5h11.82v14.1h10.73v8.54h-10.73v29.1c0,5.46,1.29,6.75,6.36,6.75h4.27v9.04h-8.74c-11.42,0-13.71-3.08-13.71-14v-30.89h-7.95v-8.54h7.95v-14.1Z"/>
    <path class="st2" d="M1454.84,702.34c0-13.41,16.49-16.59,35.95-18.67v-.99c0-9.14-5.16-11.92-11.12-11.92s-10.43,3.18-10.73,9.63h-11.62c.79-10.83,9.83-18.37,22.74-18.37s22.84,5.86,22.55,22.94c0,2.58-.2,8.94-.2,13.81,0,6.75.5,13.81,1.59,18.27h-10.83c-.4-2.28-.7-3.58-.99-7.25-3.48,5.86-9.63,8.54-17.58,8.54-11.62,0-19.76-6.26-19.76-15.99ZM1491.09,691.91c-16.79,1.59-23.74,4.07-23.74,10.13,0,4.67,3.87,7.45,9.83,7.45,8.74,0,13.9-4.37,13.9-13.51v-4.07Z"/>
    <path class="st2" d="M1539.06,649.5h11.82v14.1h10.73v8.54h-10.73v29.1c0,5.46,1.29,6.75,6.36,6.75h4.27v9.04h-8.74c-11.42,0-13.71-3.08-13.71-14v-30.89h-7.95v-8.54h7.95v-14.1Z"/>
    <path class="st2" d="M1579.59,693.69c.79,9.93,7.75,14.8,14.5,14.8,6.26,0,11.02-2.38,13.11-7.45h11.62c-2.38,8.54-10.53,17.28-24.23,17.28-17.18,0-27.01-13.01-27.01-28.41s11.12-27.51,26.22-27.51c16.39,0,26.72,13.41,25.62,31.29h-39.83ZM1579.59,685.05h27.81c-.3-8.34-6.65-13.41-13.61-13.41-5.56,0-13.11,3.38-14.2,13.41Z"/>
    <path class="st2" d="M1676.22,681.88h-11.52c-1.09-5.66-5.96-9.63-12.42-9.63-7.45,0-14,5.46-14,18.08s6.75,18.18,13.71,18.18c5.86,0,11.52-2.58,13.11-9.73h11.52c-2.38,12.51-13.41,19.57-24.83,19.57-15.49,0-25.72-12.02-25.72-27.91s10.23-28.01,26.22-28.01c11.72,0,21.85,7.65,23.94,19.47Z"/>
    <path class="st2" d="M1697.58,671.05c3.08-5.56,8.64-8.64,16.19-8.64,12.91,0,18.18,8.34,18.18,21.06v33.57h-11.82v-30.69c0-7.15-.99-14.3-10.13-14.3s-12.42,6.95-12.42,16.59v28.41h-11.82v-72.01h11.82v26.02Z"/>
    <path class="st2" d="M1756.08,671.05c3.08-5.56,8.64-8.64,16.19-8.64,12.91,0,18.18,8.34,18.18,21.06v33.57h-11.82v-30.69c0-7.15-.99-14.3-10.13-14.3s-12.42,6.95-12.42,16.59v28.41h-11.82v-53.43h11.82v7.45Z"/>
    <path class="st2" d="M1851.82,690.42c0,19.37-13.31,27.91-26.32,27.91s-26.32-8.54-26.32-27.91,13.31-28.01,26.32-28.01,26.32,8.74,26.32,28.01ZM1825.5,708.69c7.55,0,14.1-5.86,14.1-18.27s-6.55-18.37-14.1-18.37-14.1,6.06-14.1,18.37,6.56,18.27,14.1,18.27Z"/>
    <path class="st2" d="M1873.38,717.03h-11.82v-72.01h11.82v72.01Z"/>
    <path class="st2" d="M1935.75,690.42c0,19.37-13.31,27.91-26.32,27.91s-26.32-8.54-26.32-27.91,13.31-28.01,26.32-28.01,26.32,8.74,26.32,28.01ZM1909.43,708.69c7.55,0,14.1-5.86,14.1-18.27s-6.55-18.37-14.1-18.37-14.1,6.06-14.1,18.37,6.56,18.27,14.1,18.27Z"/>
    <path class="st2" d="M1981.54,663.6h11.82v48.07c0,8.64-2.19,14.9-6.46,18.87-4.27,3.97-10.63,5.76-18.97,5.76-11.72,0-20.96-4.67-22.84-16.39h11.72c1.09,5.07,4.27,7.05,11.42,7.05,5.26,0,8.64-1.49,10.63-3.87,1.99-2.28,2.68-5.56,2.68-9.04v-6.26c-3.18,5.26-8.74,8.34-15.89,8.34-12.71,0-23.24-10.23-23.24-26.92s10.53-26.82,23.24-26.82c7.15,0,12.71,3.08,15.89,8.34v-7.15ZM1968.23,671.84c-7.95,0-13.51,6.65-13.51,17.38s5.56,17.58,13.51,17.58,13.81-5.56,13.81-17.58-6.16-17.38-13.81-17.38Z"/>
    <path class="st2" d="M2004.48,734.42v-9.04h4.47c5.17,0,7.35-.4,9.73-7.35l.6-1.29-19.37-53.14h12.91l12.12,38.34,12.12-38.34h12.12l-18.77,53.33c-5.07,13.81-8.54,17.48-20.56,17.48h-5.36Z"/>
  </g>
  <g>
    <path class="st2" d="M483.95,236.06c-34.36-35.88-75.47-56.19-133.59-57.39h-7.34s0,80.65,0,80.65c67.52,5.62,101.29,49.2,101.29,130.7,0,44.52-9.61,77.38-28.87,98.52-19.21,20.75-43.28,31.12-72.14,31.12h-83.26s-3.62-205.23-3.62-205.23h-91.11s3.37,260.27,3.37,260.27c.15,11.86,9.81,21.39,21.67,21.39h160.01c56.63,0,101.62-18.71,135.02-56.04,33.4-37.37,50.09-88.42,50.09-153.12,0-64.74-17.17-115.01-51.53-150.86Z"/>
    <g>
      <rect class="st3" x="217.76" y="137.59" width="91.09" height="82.15" rx="8.9" ry="8.9"/>
      <rect class="st1" x="146.71" y="70.27" width="62.63" height="56.48" rx="6.12" ry="6.12"/>
      <rect class="st1" x="80.17" y="236.08" width="50.98" height="45.98" rx="4.98" ry="4.98"/>
      <rect class="st2" x="80.17" y="134.88" width="50.98" height="45.98" rx="4.98" ry="4.98"/>
      <rect class="st4" x="146.71" y="188.93" width="28.9" height="26.06" rx="2.82" ry="2.82"/>
      <rect class="st4" x="270.6" y="251.22" width="28.9" height="26.06" rx="2.82" ry="2.82"/>
      <rect class="st0" x="178.04" y="247.73" width="39.72" height="35.82" rx="3.88" ry="3.88"/>
    </g>
  </g>
</svg>