<?xml version="1.0" encoding="UTF-8"?>
<svg id="Layer_1" xmlns="http://www.w3.org/2000/svg" version="1.1" viewBox="0 0 2193.65 787.3">
  <!-- Generator: Adobe Illustrator 30.1.0, SVG Export Plug-In . SVG Version: 2.1.1 Build 136)  -->
  <defs>
    <style>
      .st0 {
        fill: #022873;
      }

      .st1 {
        fill: #e6e8e7;
      }

      .st2 {
        fill: #1598cc;
      }

      .st3 {
        fill: #34bf3a;
      }
    </style>
  </defs>
  <g>
    <path class="st1" d="M626.91,590.15c-13.86-11.59-20.78-27.99-20.78-49.2s6.52-37.47,19.55-48.78c13.03-11.03,34.21-18.1,63.54-21.21,29.34-3.11,47.67-6.36,55.01-9.76,7.48-3.53,11.21-10.18,11.21-19.94s-3.04-17.04-9.1-21.84c-6.06-4.8-15.87-7.21-29.41-7.21s-23.66,2.69-30.36,8.06c-6.7,5.37-10.61,14-11.74,25.87h-61.89c1.7-24.6,11.84-43.26,30.42-55.99,18.58-12.72,44.09-19.09,76.54-19.09s56.77,5.44,72.96,16.33c16.19,10.89,24.28,26.23,24.28,46.02v120.46c0,22.9,2.61,38.81,7.85,47.72h-62.56c-2.26-6.79-3.75-13.92-4.45-21.42-17.81,18.38-42.98,27.57-75.5,27.57-23.19-.14-41.71-6.01-55.57-17.6ZM705.72,566.4c33.14,0,49.72-16.89,49.72-50.69v-23.97c-3.67,3.11-8.61,5.37-14.81,6.79-6.21,1.41-16.64,3.18-31.31,5.3-14.67,1.98-25.25,5.69-31.74,11.13-6.49,5.44-9.73,13.04-9.73,22.8,0,19.09,12.62,28.63,37.87,28.63Z"/>
    <path class="st1" d="M952.67,604.15c-26.87,0-45.46-4.52-55.78-13.57-10.32-9.05-15.48-21.84-15.48-38.39v-133.82h-37.33v-41.36h37.33v-67.23h61.72v67.23h45.17v41.36h-45.17v114.36c.14,9.48,1.91,16.01,5.3,19.6,3.39,3.59,9.47,5.38,18.24,5.38s15.98-.56,21.63-1.7v46.11c-8.48,1.35-20.36,2.03-35.63,2.03Z"/>
    <path class="st1" d="M1029.23,590.15c-13.86-11.59-20.78-27.99-20.78-49.2s6.52-37.47,19.55-48.78c13.03-11.03,34.21-18.1,63.54-21.21,29.34-3.11,47.67-6.36,55.01-9.76,7.48-3.53,11.21-10.18,11.21-19.94s-3.04-17.04-9.1-21.84c-6.06-4.8-15.87-7.21-29.41-7.21s-23.66,2.69-30.36,8.06c-6.7,5.37-10.61,14-11.74,25.87h-61.89c1.7-24.6,11.84-43.26,30.42-55.99,18.58-12.72,44.09-19.09,76.54-19.09s56.77,5.44,72.96,16.33c16.19,10.89,24.28,26.23,24.28,46.02v120.46c0,22.9,2.61,38.81,7.85,47.72h-62.56c-2.26-6.79-3.75-13.92-4.45-21.42-17.81,18.38-42.98,27.57-75.5,27.57-23.19-.14-41.71-6.01-55.57-17.6ZM1108.03,566.4c33.14,0,49.72-16.89,49.72-50.69v-23.97c-3.67,3.11-8.61,5.37-14.81,6.79-6.21,1.41-16.64,3.18-31.31,5.3-14.67,1.98-25.25,5.69-31.74,11.13-6.49,5.44-9.73,13.04-9.73,22.8,0,19.09,12.62,28.63,37.87,28.63Z"/>
    <path class="st1" d="M1330.81,291.54v310.06h-61.72v-310.06h61.72Z"/>
    <path class="st1" d="M1390.62,590.15c-13.86-11.59-20.78-27.99-20.78-49.2s6.52-37.47,19.55-48.78c13.03-11.03,34.21-18.1,63.54-21.21,29.34-3.11,47.67-6.36,55.01-9.76,7.48-3.53,11.21-10.18,11.21-19.94s-3.04-17.04-9.1-21.84c-6.06-4.8-15.87-7.21-29.41-7.21s-23.66,2.69-30.36,8.06c-6.7,5.37-10.61,14-11.74,25.87h-61.89c1.7-24.6,11.84-43.26,30.42-55.99,18.58-12.72,44.09-19.09,76.54-19.09s56.77,5.44,72.96,16.33c16.19,10.89,24.28,26.23,24.28,46.02v120.46c0,22.9,2.61,38.81,7.85,47.72h-62.56c-2.26-6.79-3.75-13.92-4.45-21.42-17.81,18.38-42.98,27.57-75.5,27.57-23.19-.14-41.71-6.01-55.57-17.6ZM1469.42,566.4c33.14,0,49.72-16.89,49.72-50.69v-23.97c-3.67,3.11-8.61,5.37-14.81,6.79-6.21,1.41-16.64,3.18-31.31,5.3-14.67,1.98-25.25,5.69-31.74,11.13-6.49,5.44-9.73,13.04-9.73,22.8,0,19.09,12.62,28.63,37.87,28.63Z"/>
    <path class="st1" d="M1696.02,291.54v166.27l77.83-80.8h72.96l-84.83,82.5,94.38,142.09h-74.86l-61.5-100.31-23.97,22.9v77.41h-61.72v-310.06h61.72Z"/>
    <path class="st1" d="M1975.54,607.75c-34.5-.14-62.18-11.1-83.03-32.87-20.86-21.77-31.35-49.84-31.49-84.2-.14-34.36,10.53-62.85,32.02-85.47,21.49-22.62,48.92-34,82.29-34.15,33.37-.14,60.09,11.24,80.17,34.15,19.79,22.9,29.69,52.1,29.69,87.59l-.42,11.45h-162.24c1.7,38.04,20,57.05,54.93,57.05,11.17,0,21.49-2.83,30.96-8.48,9.47-5.65,15.48-12.58,18.03-20.78h54.29c-8.48,25.59-21.35,44.61-38.6,57.05-17.25,12.44-39.45,18.66-66.59,18.66ZM2006.72,428.81c-7.78-7.67-19.02-11.51-33.72-11.51s-26.44,4.23-35.21,12.68c-8.77,8.45-13.86,20.2-15.27,35.26h100.31c-2.97-16.62-8.34-28.76-16.12-36.43Z"/>
  </g>
  <g>
    <path class="st1" d="M895.37,707.84c0-13.41,16.49-16.59,35.95-18.67v-.99c0-9.14-5.16-11.92-11.12-11.92s-10.43,3.18-10.73,9.63h-11.62c.79-10.83,9.83-18.37,22.74-18.37s22.84,5.86,22.55,22.94c0,2.58-.2,8.94-.2,13.81,0,6.75.5,13.81,1.59,18.27h-10.83c-.4-2.28-.7-3.58-.99-7.25-3.48,5.86-9.63,8.54-17.58,8.54-11.62,0-19.76-6.26-19.76-15.99ZM931.63,697.42c-16.79,1.59-23.74,4.07-23.74,10.13,0,4.67,3.87,7.45,9.83,7.45,8.74,0,13.9-4.37,13.9-13.51v-4.07Z"/>
    <path class="st1" d="M966.89,676.56c3.08-5.56,8.64-8.64,16.19-8.64,12.91,0,18.18,8.34,18.18,21.06v33.57h-11.82v-30.69c0-7.15-.99-14.3-10.13-14.3s-12.42,6.95-12.42,16.59v28.41h-11.82v-53.43h11.82v7.45Z"/>
    <path class="st1" d="M1010.39,707.84c0-13.41,16.49-16.59,35.95-18.67v-.99c0-9.14-5.16-11.92-11.12-11.92s-10.43,3.18-10.73,9.63h-11.62c.79-10.83,9.83-18.37,22.74-18.37s22.84,5.86,22.55,22.94c0,2.58-.2,8.94-.2,13.81,0,6.75.5,13.81,1.59,18.27h-10.83c-.4-2.28-.7-3.58-.99-7.25-3.48,5.86-9.63,8.54-17.58,8.54-11.62,0-19.76-6.26-19.76-15.99ZM1046.64,697.42c-16.79,1.59-23.74,4.07-23.74,10.13,0,4.67,3.87,7.45,9.83,7.45,8.74,0,13.9-4.37,13.9-13.51v-4.07Z"/>
    <path class="st1" d="M1081.9,722.54h-11.82v-72.01h11.82v72.01Z"/>
    <path class="st1" d="M1093.12,739.92v-9.04h4.47c5.17,0,7.35-.4,9.73-7.35l.6-1.29-19.37-53.14h12.91l12.12,38.34,12.12-38.34h12.12l-18.77,53.33c-5.07,13.81-8.54,17.48-20.56,17.48h-5.36Z"/>
    <path class="st1" d="M1146.16,655.01h11.82v14.1h10.73v8.54h-10.73v29.1c0,5.46,1.29,6.75,6.36,6.75h4.27v9.04h-8.74c-11.42,0-13.71-3.08-13.71-14v-30.89h-7.95v-8.54h7.95v-14.1Z"/>
    <path class="st1" d="M1190.06,650.54v11.92h-11.82v-11.92h11.82ZM1190.06,669.11v53.43h-11.82v-53.43h11.82Z"/>
    <path class="st1" d="M1249.85,687.38h-11.52c-1.09-5.66-5.96-9.63-12.42-9.63-7.45,0-14,5.46-14,18.08s6.75,18.18,13.71,18.18c5.86,0,11.52-2.58,13.11-9.73h11.52c-2.38,12.51-13.41,19.57-24.83,19.57-15.49,0-25.72-12.02-25.72-27.91s10.23-28.01,26.22-28.01c11.72,0,21.85,7.65,23.94,19.47Z"/>
    <path class="st1" d="M1290.47,683.71c-1.29-4.87-5.76-6.75-11.72-6.75-5.17,0-9.93,2.28-9.93,5.86s2.48,5.46,7.15,6.36l7.55,1.49c10.83,2.09,19.07,5.46,19.07,15.89,0,11.12-10.53,17.28-22.65,17.28-13.11,0-21.85-7.55-23.14-17.58h11.52c1.09,5.56,4.97,8.64,12.02,8.64,6.26,0,10.73-2.58,10.73-6.95s-3.97-6.26-9.24-7.35l-8.04-1.59c-9.04-1.89-16.09-5.76-16.09-15.59s10.23-15.49,21.75-15.49c10.43,0,19.96,5.07,22.15,15.79h-11.12Z"/>
    <path class="st1" d="M1370.53,650.54h11.82v72.01h-11.82v-7.05c-3.18,5.26-8.74,8.34-15.89,8.34-12.71,0-23.24-10.83-23.24-28.01s10.53-27.91,23.24-27.91c7.15,0,12.71,3.08,15.89,8.34v-25.72ZM1357.22,677.55c-7.95,0-13.51,7.05-13.51,18.27s5.56,18.37,13.51,18.37,13.81-6.06,13.81-18.37-6.16-18.27-13.81-18.27Z"/>
    <path class="st1" d="M1392.48,707.84c0-13.41,16.49-16.59,35.95-18.67v-.99c0-9.14-5.16-11.92-11.12-11.92s-10.43,3.18-10.73,9.63h-11.62c.79-10.83,9.83-18.37,22.74-18.37s22.84,5.86,22.55,22.94c0,2.58-.2,8.94-.2,13.81,0,6.75.5,13.81,1.59,18.27h-10.83c-.4-2.28-.7-3.58-.99-7.25-3.48,5.86-9.63,8.54-17.58,8.54-11.62,0-19.76-6.26-19.76-15.99ZM1428.73,697.42c-16.79,1.59-23.74,4.07-23.74,10.13,0,4.67,3.87,7.45,9.83,7.45,8.74,0,13.9-4.37,13.9-13.51v-4.07Z"/>
    <path class="st1" d="M1453.86,655.01h11.82v14.1h10.73v8.54h-10.73v29.1c0,5.46,1.29,6.75,6.36,6.75h4.27v9.04h-8.74c-11.42,0-13.71-3.08-13.71-14v-30.89h-7.95v-8.54h7.95v-14.1Z"/>
    <path class="st1" d="M1482.76,707.84c0-13.41,16.49-16.59,35.95-18.67v-.99c0-9.14-5.16-11.92-11.12-11.92s-10.43,3.18-10.73,9.63h-11.62c.79-10.83,9.83-18.37,22.74-18.37s22.84,5.86,22.55,22.94c0,2.58-.2,8.94-.2,13.81,0,6.75.5,13.81,1.59,18.27h-10.83c-.4-2.28-.7-3.58-.99-7.25-3.48,5.86-9.63,8.54-17.58,8.54-11.62,0-19.76-6.26-19.76-15.99ZM1519.01,697.42c-16.79,1.59-23.74,4.07-23.74,10.13,0,4.67,3.87,7.45,9.83,7.45,8.74,0,13.9-4.37,13.9-13.51v-4.07Z"/>
    <path class="st1" d="M1566.98,655.01h11.82v14.1h10.73v8.54h-10.73v29.1c0,5.46,1.29,6.75,6.36,6.75h4.27v9.04h-8.74c-11.42,0-13.71-3.08-13.71-14v-30.89h-7.95v-8.54h7.95v-14.1Z"/>
    <path class="st1" d="M1607.51,699.2c.79,9.93,7.75,14.8,14.5,14.8,6.26,0,11.02-2.38,13.11-7.45h11.62c-2.38,8.54-10.53,17.28-24.23,17.28-17.18,0-27.01-13.01-27.01-28.41s11.12-27.51,26.22-27.51c16.39,0,26.72,13.41,25.62,31.29h-39.83ZM1607.51,690.56h27.81c-.3-8.34-6.65-13.41-13.61-13.41-5.56,0-13.11,3.38-14.2,13.41Z"/>
    <path class="st1" d="M1704.15,687.38h-11.52c-1.09-5.66-5.96-9.63-12.42-9.63-7.45,0-14,5.46-14,18.08s6.75,18.18,13.71,18.18c5.86,0,11.52-2.58,13.11-9.73h11.52c-2.38,12.51-13.41,19.57-24.83,19.57-15.49,0-25.72-12.02-25.72-27.91s10.23-28.01,26.22-28.01c11.72,0,21.85,7.65,23.94,19.47Z"/>
    <path class="st1" d="M1725.5,676.56c3.08-5.56,8.64-8.64,16.19-8.64,12.91,0,18.18,8.34,18.18,21.06v33.57h-11.82v-30.69c0-7.15-.99-14.3-10.13-14.3s-12.42,6.95-12.42,16.59v28.41h-11.82v-72.01h11.82v26.02Z"/>
    <path class="st1" d="M1784,676.56c3.08-5.56,8.64-8.64,16.19-8.64,12.91,0,18.18,8.34,18.18,21.06v33.57h-11.82v-30.69c0-7.15-.99-14.3-10.13-14.3s-12.42,6.95-12.42,16.59v28.41h-11.82v-53.43h11.82v7.45Z"/>
    <path class="st1" d="M1879.75,695.93c0,19.37-13.31,27.91-26.32,27.91s-26.32-8.54-26.32-27.91,13.31-28.01,26.32-28.01,26.32,8.74,26.32,28.01ZM1853.43,714.2c7.55,0,14.1-5.86,14.1-18.27s-6.55-18.37-14.1-18.37-14.1,6.06-14.1,18.37,6.56,18.27,14.1,18.27Z"/>
    <path class="st1" d="M1901.3,722.54h-11.82v-72.01h11.82v72.01Z"/>
    <path class="st1" d="M1963.67,695.93c0,19.37-13.31,27.91-26.32,27.91s-26.32-8.54-26.32-27.91,13.31-28.01,26.32-28.01,26.32,8.74,26.32,28.01ZM1937.35,714.2c7.55,0,14.1-5.86,14.1-18.27s-6.55-18.37-14.1-18.37-14.1,6.06-14.1,18.37,6.56,18.27,14.1,18.27Z"/>
    <path class="st1" d="M2009.46,669.11h11.82v48.07c0,8.64-2.19,14.9-6.46,18.87-4.27,3.97-10.63,5.76-18.97,5.76-11.72,0-20.96-4.67-22.84-16.39h11.72c1.09,5.07,4.27,7.05,11.42,7.05,5.26,0,8.64-1.49,10.63-3.87,1.99-2.28,2.68-5.56,2.68-9.04v-6.26c-3.18,5.26-8.74,8.34-15.89,8.34-12.71,0-23.24-10.23-23.24-26.92s10.53-26.82,23.24-26.82c7.15,0,12.71,3.08,15.89,8.34v-7.15ZM1996.15,677.35c-7.95,0-13.51,6.65-13.51,17.38s5.56,17.58,13.51,17.58,13.81-5.56,13.81-17.58-6.16-17.38-13.81-17.38Z"/>
    <path class="st1" d="M2032.4,739.92v-9.04h4.47c5.17,0,7.35-.4,9.73-7.35l.6-1.29-19.37-53.14h12.91l12.12,38.34,12.12-38.34h12.12l-18.77,53.33c-5.07,13.81-8.54,17.48-20.56,17.48h-5.36Z"/>
  </g>
  <g>
    <path class="st1" d="M511.88,241.55c-34.36-35.88-75.47-56.19-133.59-57.39h-7.34s0,80.65,0,80.65c67.52,5.62,101.29,49.2,101.29,130.7,0,44.52-9.61,77.38-28.87,98.52-19.21,20.75-43.28,31.12-72.14,31.12h-83.26s-3.62-205.23-3.62-205.23h-91.11s3.36,259.52,3.36,259.52c.16,12.27,10.15,22.13,22.42,22.13h159.27c56.63,0,101.62-18.71,135.02-56.04,33.4-37.37,50.09-88.42,50.09-153.12,0-64.74-17.17-115.01-51.53-150.87Z"/>
    <g>
      <rect class="st0" x="245.69" y="143.08" width="91.09" height="82.15" rx="8.9" ry="8.9"/>
      <rect class="st2" x="174.64" y="75.76" width="62.63" height="56.48" rx="6.12" ry="6.12"/>
      <rect class="st2" x="108.1" y="241.57" width="50.98" height="45.98" rx="4.98" ry="4.98"/>
      <rect class="st1" x="108.1" y="140.38" width="50.98" height="45.98" rx="4.98" ry="4.98"/>
      <rect class="st3" x="174.64" y="194.42" width="28.9" height="26.06" rx="2.82" ry="2.82"/>
      <rect class="st3" x="298.53" y="256.72" width="28.9" height="26.06" rx="2.82" ry="2.82"/>
      <rect class="st0" x="205.97" y="253.23" width="39.72" height="35.82" rx="3.88" ry="3.88"/>
    </g>
  </g>
</svg>