<?xml version="1.0" encoding="UTF-8"?>
<svg id="Layer_1" xmlns="http://www.w3.org/2000/svg" version="1.1" viewBox="0 0 692.63 787.3">
  <!-- Generator: Adobe Illustrator 30.1.0, SVG Export Plug-In . SVG Version: 2.1.1 Build 136)  -->
  <path d="M511.36,300.74c-32.87-34.32-72.19-53.76-127.8-54.9h-7.02s0,77.16,0,77.16c64.59,5.38,96.9,47.07,96.9,125.04,0,42.59-9.2,74.02-27.61,94.24-18.38,19.85-41.4,29.77-69.02,29.77h-79.65s-3.47-196.34-3.47-196.34h-87.16s3.21,248.27,3.21,248.27c.15,11.74,9.71,21.17,21.45,21.17h152.37c54.17,0,97.21-17.9,129.17-53.61,31.95-35.75,47.92-84.59,47.92-146.48,0-61.94-16.42-110.02-49.29-144.32Z"/>
  <rect x="256.71" y="206.54" width="87.14" height="78.59" rx="8.51" ry="8.51"/>
  <rect x="188.74" y="142.14" width="59.92" height="54.03" rx="5.85" ry="5.85"/>
  <rect x="125.09" y="300.76" width="48.77" height="43.98" rx="4.76" ry="4.76"/>
  <rect x="125.09" y="203.95" width="48.77" height="43.98" rx="4.76" ry="4.76"/>
  <rect x="188.74" y="255.65" width="27.65" height="24.93" rx="2.7" ry="2.7"/>
  <rect x="307.26" y="315.25" width="27.65" height="24.93" rx="2.7" ry="2.7"/>
  <rect x="218.72" y="311.91" width="38" height="34.27" rx="3.71" ry="3.71"/>
</svg>