<?xml version="1.0" encoding="UTF-8"?>
<svg id="Layer_1" xmlns="http://www.w3.org/2000/svg" version="1.1" viewBox="0 0 733.97 787.3">
  <!-- Generator: Adobe Illustrator 30.1.0, SVG Export Plug-In . SVG Version: 2.1.1 Build 136)  -->
  <defs>
    <style>
      .st0 {
        fill: #f28d35;
      }

      .st1 {
        fill: #022873;
      }

      .st2 {
        fill: #e6e8e7;
      }

      .st3 {
        fill: #ef5829;
      }

      .st4 {
        fill: #34bf3a;
      }
    </style>
  </defs>
  <path class="st1" d="M532.69,311.8c-32.79-34.24-72.03-53.63-127.51-54.77h-7s0,76.98,0,76.98c64.45,5.37,96.68,46.96,96.68,124.75,0,42.49-9.18,73.85-27.55,94.03-18.33,19.8-41.31,29.71-68.86,29.71h-79.47s-3.46-195.89-3.46-195.89h-86.97s3.21,247.71,3.21,247.71c.15,11.71,9.69,21.12,21.4,21.12h152.02c54.05,0,96.99-17.86,128.88-53.49,31.88-35.67,47.81-84.4,47.81-146.15,0-61.8-16.39-109.77-49.18-144Z"/>
  <rect class="st3" x="278.62" y="217.81" width="86.95" height="78.41" rx="8.49" ry="8.49"/>
  <rect class="st1" x="210.8" y="153.55" width="59.78" height="53.91" rx="5.84" ry="5.84"/>
  <rect class="st1" x="147.29" y="311.82" width="48.66" height="43.88" rx="4.75" ry="4.75"/>
  <rect class="st2" x="147.29" y="215.23" width="48.66" height="43.88" rx="4.75" ry="4.75"/>
  <rect class="st4" x="210.8" y="266.81" width="27.58" height="24.88" rx="2.69" ry="2.69"/>
  <rect class="st4" x="329.05" y="326.27" width="27.58" height="24.88" rx="2.69" ry="2.69"/>
  <rect class="st0" x="240.71" y="322.94" width="37.91" height="34.19" rx="3.7" ry="3.7"/>
</svg>