<?xml version="1.0" encoding="UTF-8"?>
<svg id="Layer_1" xmlns="http://www.w3.org/2000/svg" version="1.1" viewBox="0 0 673.52 787.3">
  <!-- Generator: Adobe Illustrator 30.1.0, SVG Export Plug-In . SVG Version: 2.1.1 Build 136)  -->
  <defs>
    <style>
      .st0 {
        fill: #f28d35;
      }

      .st1 {
        fill: #009ee2;
      }

      .st2 {
        fill: #e6e8e7;
      }

      .st3 {
        fill: #ef5829;
      }

      .st4 {
        fill: #34bf3a;
      }
    </style>
  </defs>
  <path class="st2" d="M516.79,250.94c-34.36-35.88-75.47-56.2-133.6-57.39h-7.34s0,80.66,0,80.66c67.53,5.62,101.3,49.21,101.3,130.71,0,44.52-9.62,77.38-28.87,98.52-19.21,20.75-43.28,31.13-72.15,31.13h-83.26s-3.62-205.25-3.62-205.25h-91.12s3.36,259.55,3.36,259.55c.16,12.27,10.15,22.13,22.41,22.13h159.29c56.63,0,101.63-18.71,135.03-56.04,33.4-37.38,50.1-88.43,50.1-153.13,0-64.75-17.17-115.02-51.53-150.88Z"/>
  <rect class="st3" x="250.59" y="152.46" width="91.1" height="82.15" rx="8.9" ry="8.9"/>
  <rect class="st1" x="179.53" y="85.13" width="62.63" height="56.49" rx="6.12" ry="6.12"/>
  <rect class="st1" x="112.98" y="250.95" width="50.99" height="45.98" rx="4.98" ry="4.98"/>
  <rect class="st2" x="112.98" y="149.76" width="50.99" height="45.98" rx="4.98" ry="4.98"/>
  <rect class="st4" x="179.53" y="203.8" width="28.9" height="26.06" rx="2.82" ry="2.82"/>
  <rect class="st4" x="303.43" y="266.1" width="28.9" height="26.06" rx="2.82" ry="2.82"/>
  <rect class="st0" x="210.86" y="262.61" width="39.72" height="35.82" rx="3.88" ry="3.88"/>
</svg>