<?xml version="1.0" encoding="UTF-8"?>
<svg id="Layer_1" xmlns="http://www.w3.org/2000/svg" version="1.1" viewBox="0 0 687.75 787.3">
  <!-- Generator: Adobe Illustrator 30.1.0, SVG Export Plug-In . SVG Version: 2.1.1 Build 136)  -->
  <defs>
    <style>
      .st0 {
        fill: #022873;
      }

      .st1 {
        fill: #e6e8e7;
      }

      .st2 {
        fill: #1598cc;
      }

      .st3 {
        fill: #34bf3a;
      }
    </style>
  </defs>
  <path class="st1" d="M511.88,277.11c-34.36-35.88-75.47-56.19-133.59-57.39h-7.34s0,80.65,0,80.65c67.52,5.62,101.29,49.2,101.29,130.7,0,44.52-9.61,77.38-28.87,98.52-19.21,20.75-43.28,31.12-72.14,31.12h-83.26s-3.62-205.23-3.62-205.23h-91.11s3.36,259.52,3.36,259.52c.16,12.27,10.15,22.13,22.42,22.13h159.27c56.63,0,101.62-18.71,135.02-56.04,33.4-37.37,50.09-88.42,50.09-153.12,0-64.74-17.17-115.01-51.53-150.87Z"/>
  <rect class="st0" x="245.69" y="178.64" width="91.09" height="82.15" rx="8.9" ry="8.9"/>
  <rect class="st2" x="174.64" y="111.32" width="62.63" height="56.48" rx="6.12" ry="6.12"/>
  <rect class="st2" x="108.1" y="277.13" width="50.98" height="45.98" rx="4.98" ry="4.98"/>
  <rect class="st1" x="108.1" y="175.93" width="50.98" height="45.98" rx="4.98" ry="4.98"/>
  <rect class="st3" x="174.64" y="229.98" width="28.9" height="26.06" rx="2.82" ry="2.82"/>
  <rect class="st3" x="298.53" y="292.28" width="28.9" height="26.06" rx="2.82" ry="2.82"/>
  <rect class="st0" x="205.97" y="288.79" width="39.72" height="35.82" rx="3.88" ry="3.88"/>
</svg>