<?xml version="1.0" encoding="UTF-8"?>
<svg id="Layer_1" xmlns="http://www.w3.org/2000/svg" version="1.1" viewBox="0 0 733.97 787.3">
  <!-- Generator: Adobe Illustrator 30.1.0, SVG Export Plug-In . SVG Version: 2.1.1 Build 136)  -->
  <defs>
    <style>
      .st0 {
        fill: #f28d35;
      }

      .st1 {
        fill: #022873;
      }

      .st2 {
        fill: #e6e8e7;
      }

      .st3 {
        fill: #ef5829;
      }

      .st4 {
        fill: #1598cc;
      }
    </style>
  </defs>
  <path class="st1" d="M532.66,311.54c-32.79-34.24-72.02-53.63-127.5-54.77h-7s0,76.97,0,76.97c64.44,5.37,96.67,46.96,96.67,124.74,0,42.49-9.18,73.85-27.55,94.02-18.33,19.8-41.3,29.7-68.85,29.7h-79.46s-3.46-195.88-3.46-195.88h-86.96s3.21,247.69,3.21,247.69c.15,11.71,9.69,21.12,21.4,21.12h152.01c54.04,0,96.98-17.86,128.86-53.48,31.88-35.67,47.81-84.39,47.81-146.14,0-61.79-16.39-109.77-49.18-143.99Z"/>
  <rect class="st3" x="278.61" y="217.56" width="86.94" height="78.4" rx="8.49" ry="8.49"/>
  <rect class="st1" x="210.79" y="153.31" width="59.77" height="53.91" rx="5.84" ry="5.84"/>
  <rect class="st1" x="147.29" y="311.56" width="48.66" height="43.88" rx="4.75" ry="4.75"/>
  <rect class="st2" x="147.29" y="214.98" width="48.66" height="43.88" rx="4.75" ry="4.75"/>
  <rect class="st4" x="210.79" y="266.56" width="27.58" height="24.87" rx="2.69" ry="2.69"/>
  <rect class="st4" x="329.04" y="326.01" width="27.58" height="24.87" rx="2.69" ry="2.69"/>
  <rect class="st0" x="240.7" y="322.68" width="37.91" height="34.19" rx="3.7" ry="3.7"/>
</svg>